0
SECTION
2
HEADER
9
$ACADVER
1
AC1014
9
$ACADMAINTVER
70
8
9
$DWGCODEPAGE
3
ANSI_1252
9
$INSBASE
10
0.0
20
0.0
30
0.0
9
$EXTMIN
10
1.000000E+20
20
1.000000E+20
30
1.000000E+20
9
$EXTMAX
10
-1.000000E+20
20
-1.000000E+20
30
-1.000000E+20
9
$LIMMIN
10
0.0
20
0.0
9
$LIMMAX
10
12.0
20
9.0
9
$ORTHOMODE
70
0
9
$REGENMODE
70
1
9
$FILLMODE
70
1
9
$QTEXTMODE
70
0
9
$MIRRTEXT
70
1
9
$DRAGMODE
70
2
9
$LTSCALE
40
1.0
9
$OSMODE
70
0
9
$ATTMODE
70
1
9
$TEXTSIZE
40
0.2
9
$TRACEWID
40
0.05
9
$TEXTSTYLE
7
STANDARD
9
$CLAYER
8
0
9
$CELTYPE
6
BYLAYER
9
$CECOLOR
62
256
9
$CELTSCALE
40
1.0
9
$DELOBJ
70
1
9
$DISPSILH
70
0
9
$DIMSCALE
40
1.0
9
$DIMASZ
40
0.18
9
$DIMEXO
40
0.0625
9
$DIMDLI
40
0.38
9
$DIMRND
40
0.0
9
$DIMDLE
40
0.0
9
$DIMEXE
40
0.18
9
$DIMTP
40
0.0
9
$DIMTM
40
0.0
9
$DIMTXT
40
0.18
9
$DIMCEN
40
0.09
9
$DIMTSZ
40
0.0
9
$DIMTOL
70
0
9
$DIMLIM
70
0
9
$DIMTIH
70
1
9
$DIMTOH
70
1
9
$DIMSE1
70
0
9
$DIMSE2
70
0
9
$DIMTAD
70
0
9
$DIMZIN
70
0
9
$DIMBLK
1

9
$DIMASO
70
1
9
$DIMSHO
70
1
9
$DIMPOST
1

9
$DIMAPOST
1

9
$DIMALT
70
0
9
$DIMALTD
70
2
9
$DIMALTF
40
25.4
9
$DIMLFAC
40
1.0
9
$DIMTOFL
70
0
9
$DIMTVP
40
0.0
9
$DIMTIX
70
0
9
$DIMSOXD
70
0
9
$DIMSAH
70
0
9
$DIMBLK1
1

9
$DIMBLK2
1

9
$DIMSTYLE
2
STANDARD
9
$DIMCLRD
70
0
9
$DIMCLRE
70
0
9
$DIMCLRT
70
0
9
$DIMTFAC
40
1.0
9
$DIMGAP
40
0.09
9
$DIMJUST
70
0
9
$DIMSD1
70
0
9
$DIMSD2
70
0
9
$DIMTOLJ
70
1
9
$DIMTZIN
70
0
9
$DIMALTZ
70
0
9
$DIMALTTZ
70
0
9
$DIMFIT
70
3
9
$DIMUPT
70
0
9
$DIMUNIT
70
2
9
$DIMDEC
70
4
9
$DIMTDEC
70
4
9
$DIMALTU
70
2
9
$DIMALTTD
70
2
9
$DIMTXSTY
7
STANDARD
9
$DIMAUNIT
70
0
9
$LUNITS
70
2
9
$LUPREC
70
4
9
$SKETCHINC
40
0.1
9
$FILLETRAD
40
0.5
9
$AUNITS
70
0
9
$AUPREC
70
0
9
$MENU
1
.
9
$ELEVATION
40
0.0
9
$PELEVATION
40
0.0
9
$THICKNESS
40
0.0
9
$LIMCHECK
70
0
9
$BLIPMODE
70
0
9
$CHAMFERA
40
0.5
9
$CHAMFERB
40
0.5
9
$CHAMFERC
40
1.0
9
$CHAMFERD
40
0.0
9
$SKPOLY
70
1
9
$TDCREATE
40
2451008.519973958
9
$TDUPDATE
40
2451008.523538426
9
$TDINDWG
40
0.0024055556
9
$TDUSRTIMER
40
0.0024055556
9
$USRTIMER
70
1
9
$ANGBASE
50
0.0
9
$ANGDIR
70
0
9
$PDMODE
70
0
9
$PDSIZE
40
0.0
9
$PLINEWID
40
0.0
9
$COORDS
70
1
9
$SPLFRAME
70
0
9
$SPLINETYPE
70
6
9
$SPLINESEGS
70
8
9
$ATTDIA
70
0
9
$ATTREQ
70
1
9
$HANDLING
70
1
9
$HANDSEED
5
5B
9
$SURFTAB1
70
6
9
$SURFTAB2
70
6
9
$SURFTYPE
70
6
9
$SURFU
70
6
9
$SURFV
70
6
9
$UCSNAME
2

9
$UCSORG
10
0.0
20
0.0
30
0.0
9
$UCSXDIR
10
1.0
20
0.0
30
0.0
9
$UCSYDIR
10
0.0
20
1.0
30
0.0
9
$PUCSNAME
2

9
$PUCSORG
10
0.0
20
0.0
30
0.0
9
$PUCSXDIR
10
1.0
20
0.0
30
0.0
9
$PUCSYDIR
10
0.0
20
1.0
30
0.0
9
$USERI1
70
0
9
$USERI2
70
0
9
$USERI3
70
0
9
$USERI4
70
0
9
$USERI5
70
0
9
$USERR1
40
0.0
9
$USERR2
40
0.0
9
$USERR3
40
0.0
9
$USERR4
40
0.0
9
$USERR5
40
0.0
9
$WORLDVIEW
70
1
9
$SHADEDGE
70
3
9
$SHADEDIF
70
70
9
$TILEMODE
70
1
9
$MAXACTVP
70
48
9
$PINSBASE
10
0.0
20
0.0
30
0.0
9
$PLIMCHECK
70
0
9
$PEXTMIN
10
1.000000E+20
20
1.000000E+20
30
1.000000E+20
9
$PEXTMAX
10
-1.000000E+20
20
-1.000000E+20
30
-1.000000E+20
9
$PLIMMIN
10
0.0
20
0.0
9
$PLIMMAX
10
12.0
20
9.0
9
$UNITMODE
70
0
9
$VISRETAIN
70
1
9
$PLINEGEN
70
0
9
$PSLTSCALE
70
1
9
$TREEDEPTH
70
3020
9
$PICKSTYLE
70
1
9
$CMLSTYLE
2
STANDARD
9
$CMLJUST
70
0
9
$CMLSCALE
40
1.0
9
$PROXYGRAPHICS
70
1
9
$MEASUREMENT
70
0
0
ENDSEC
0
SECTION
2
CLASSES
0
ENDSEC
0
SECTION
2
TABLES
0
TABLE
2
VPORT
5
8
100
AcDbSymbolTable
70
3
0
VPORT
5
5A
100
AcDbSymbolTableRecord
100
AcDbViewportTableRecord
2
*ACTIVE
70
0
10
0.0
20
0.0
11
1.0
21
1.0
12
7.623626
22
4.5
13
0.0
23
0.0
14
0.5
24
0.5
15
0.5
25
0.5
16
0.0
26
0.0
36
1.0
17
0.0
27
0.0
37
0.0
40
9.0
41
1.694139
42
50.0
43
0.0
44
0.0
50
0.0
51
0.0
71
0
72
100
73
1
74
1
75
0
76
0
77
0
78
0
0
ENDTAB
0
TABLE
2
LTYPE
5
5
100
AcDbSymbolTable
70
1
0
LTYPE
5
13
100
AcDbSymbolTableRecord
100
AcDbLinetypeTableRecord
2
BYBLOCK
70
0
3

72
65
73
0
40
0.0
0
LTYPE
5
14
100
AcDbSymbolTableRecord
100
AcDbLinetypeTableRecord
2
BYLAYER
70
0
3

72
65
73
0
40
0.0
0
LTYPE
5
15
100
AcDbSymbolTableRecord
100
AcDbLinetypeTableRecord
2
CONTINUOUS
70
0
3
Solid line
72
65
73
0
40
0.0
0
ENDTAB
0
TABLE
2
LAYER
5
2
100
AcDbSymbolTable
70
10
0
LAYER
5
F
100
AcDbSymbolTableRecord
100
AcDbLayerTableRecord
2
0
70
0
62
7
6
CONTINUOUS
0
LAYER
5
4C
100
AcDbSymbolTableRecord
100
AcDbLayerTableRecord
2
FRAMES
70
0
62
2
6
CONTINUOUS
0
LAYER
5
4D
100
AcDbSymbolTableRecord
100
AcDbLayerTableRecord
2
JOINTS
70
0
62
2
6
CONTINUOUS
0
LAYER
5
4E
100
AcDbSymbolTableRecord
100
AcDbLayerTableRecord
2
SHELLS
70
0
62
1
6
CONTINUOUS
0
LAYER
5
4F
100
AcDbSymbolTableRecord
100
AcDbLayerTableRecord
2
GRIDS
70
0
62
8
6
CONTINUOUS
0
LAYER
5
50
100
AcDbSymbolTableRecord
100
AcDbLayerTableRecord
2
PLANES
70
0
62
5
6
CONTINUOUS
0
LAYER
5
51
100
AcDbSymbolTableRecord
100
AcDbLayerTableRecord
2
ASOLIDS
70
0
62
6
6
CONTINUOUS
0
LAYER
5
52
100
AcDbSymbolTableRecord
100
AcDbLayerTableRecord
2
SOLIDS
70
0
62
7
6
CONTINUOUS
0
LAYER
5
53
100
AcDbSymbolTableRecord
100
AcDbLayerTableRecord
2
TEXT
70
0
62
94
6
CONTINUOUS
0
LAYER
5
58
100
AcDbSymbolTableRecord
100
AcDbLayerTableRecord
2
NLLINKS
70
0
62
3
6
CONTINUOUS
0
ENDTAB
0
TABLE
2
STYLE
5
3
100
AcDbSymbolTable
70
1
0
STYLE
5
10
100
AcDbSymbolTableRecord
100
AcDbTextStyleTableRecord
2
STANDARD
70
0
40
0.0
41
1.0
50
0.0
71
0
42
0.2
3
txt
4

0
ENDTAB
0
TABLE
2
VIEW
5
6
100
AcDbSymbolTable
70
0
0
ENDTAB
0
TABLE
2
UCS
5
7
100
AcDbSymbolTable
70
0
0
ENDTAB
0
TABLE
2
APPID
5
9
100
AcDbSymbolTable
70
1
0
APPID
5
11
100
AcDbSymbolTableRecord
100
AcDbRegAppTableRecord
2
ACAD
70
0
0
ENDTAB
0
TABLE
2
DIMSTYLE
5
A
100
AcDbSymbolTable
70
1
0
DIMSTYLE
105
1D
100
AcDbSymbolTableRecord
100
AcDbDimStyleTableRecord
2
STANDARD
70
0
3

4

5

6

7

40
1.0
41
0.18
42
0.0625
43
0.38
44
0.18
45
0.0
46
0.0
47
0.0
48
0.0
140
0.18
141
0.09
142
0.0
143
25.4
144
1.0
145
0.0
146
1.0
147
0.09
71
0
72
0
73
1
74
1
75
0
76
0
77
0
78
0
170
0
171
2
172
0
173
0
174
0
175
0
176
0
177
0
178
0
270
2
271
4
272
4
273
2
274
2
340
10
275
0
280
0
281
0
282
0
283
1
284
0
285
0
286
0
287
3
288
0
0
ENDTAB
0
TABLE
2
BLOCK_RECORD
5
1
100
AcDbSymbolTable
70
0
0
BLOCK_RECORD
5
19
100
AcDbSymbolTableRecord
100
AcDbBlockTableRecord
2
*MODEL_SPACE
0
BLOCK_RECORD
5
16
100
AcDbSymbolTableRecord
100
AcDbBlockTableRecord
2
*PAPER_SPACE
0
ENDTAB
0
ENDSEC
0
SECTION
2
BLOCKS
0
BLOCK
5
1A
100
AcDbEntity
8
0
100
AcDbBlockBegin
2
*MODEL_SPACE
70
0
10
0.0
20
0.0
30
0.0
3
*MODEL_SPACE
1

0
ENDBLK
5
1B
100
AcDbEntity
8
0
100
AcDbBlockEnd
0
BLOCK
5
17
100
AcDbEntity
67
1
8
0
100
AcDbBlockBegin
2
*PAPER_SPACE
70
0
10
0.0
20
0.0
30
0.0
3
*PAPER_SPACE
1

0
ENDBLK
5
18
100
AcDbEntity
67
1
8
0
100
AcDbBlockEnd
0
ENDSEC
0
SECTION
2
ENTITIES
0
3DFACE
5
B1
100
AcDbEntity
8
SHELLS
100
AcDbFace
10
623.470126396976
20
0
30
729.98972697603
11
615.79417455167
21
97.5322156914761
31
729.98972697603
12
474.090403485666
22
75.0885432193108
32
831.384387633061
13
480
23
0
33
831.384387633061
0
3DFACE
5
B2
100
AcDbEntity
8
SHELLS
100
AcDbFace
10
615.79417455167
20
97.5322156914761
30
729.98972697603
11
592.955326425207
21
192.662864541762
31
729.98972697603
12
456.507127821674
22
148.328157299975
32
831.384387633061
13
474.090403485666
23
75.0885432193108
33
831.384387633061
0
3DFACE
5
B3
100
AcDbEntity
8
SHELLS
100
AcDbFace
10
592.955326425207
20
192.662864541762
30
729.98972697603
11
555.515950256252
21
283.049514255642
31
729.98972697603
12
427.683131610417
22
217.915439874982
32
831.384387633061
13
456.507127821674
23
148.328157299975
33
831.384387633061
0
3DFACE
5
B4
100
AcDbEntity
8
SHELLS
100
AcDbFace
10
555.515950256252
20
283.049514255642
30
729.98972697603
11
504.39792774025
21
366.466545541067
31
729.98972697603
12
388.328157299975
22
282.136921100387
32
831.384387633061
13
427.683131610417
23
217.915439874982
33
831.384387633061
0
3DFACE
5
B5
100
AcDbEntity
8
SHELLS
100
AcDbFace
10
504.39792774025
20
366.466545541067
30
729.98972697603
11
440.859954242536
21
440.859954242536
31
729.98972697603
12
339.411254969543
22
339.411254969543
32
831.384387633061
13
388.328157299975
23
282.136921100387
33
831.384387633061
0
3DFACE
5
B6
100
AcDbEntity
8
SHELLS
100
AcDbFace
10
440.859954242536
20
440.859954242536
30
729.98972697603
11
366.466545541067
21
504.39792774025
31
729.98972697603
12
282.136921100387
22
388.328157299975
32
831.384387633061
13
339.411254969543
23
339.411254969543
33
831.384387633061
0
3DFACE
5
B7
100
AcDbEntity
8
SHELLS
100
AcDbFace
10
366.466545541067
20
504.39792774025
30
729.98972697603
11
283.049514255642
21
555.515950256252
31
729.98972697603
12
217.915439874982
22
427.683131610416
32
831.384387633061
13
282.136921100387
23
388.328157299975
33
831.384387633061
0
3DFACE
5
B8
100
AcDbEntity
8
SHELLS
100
AcDbFace
10
283.049514255642
20
555.515950256252
30
729.98972697603
11
192.662864541762
21
592.955326425207
31
729.98972697603
12
148.328157299975
22
456.507127821674
32
831.384387633061
13
217.915439874982
23
427.683131610416
33
831.384387633061
0
3DFACE
5
B9
100
AcDbEntity
8
SHELLS
100
AcDbFace
10
192.662864541762
20
592.955326425207
30
729.98972697603
11
97.5322156914762
21
615.79417455167
31
729.98972697603
12
75.0885432193108
22
474.090403485666
32
831.384387633061
13
148.328157299975
23
456.507127821674
33
831.384387633061
0
3DFACE
5
B10
100
AcDbEntity
8
SHELLS
100
AcDbFace
10
97.5322156914762
20
615.79417455167
30
729.98972697603
11
3.81752739102089E-14
21
623.470126396976
31
729.98972697603
12
2.9390552491737E-14
22
480
32
831.384387633061
13
75.0885432193108
23
474.090403485666
33
831.384387633061
0
3DFACE
5
B11
100
AcDbEntity
8
SHELLS
100
AcDbFace
10
3.81752739102089E-14
20
623.470126396976
30
729.98972697603
11
-97.5322156914761
21
615.79417455167
31
729.98972697603
12
-75.0885432193108
22
474.090403485666
32
831.384387633061
13
2.9390552491737E-14
23
480
33
831.384387633061
0
3DFACE
5
B12
100
AcDbEntity
8
SHELLS
100
AcDbFace
10
-97.5322156914761
20
615.79417455167
30
729.98972697603
11
-192.662864541762
21
592.955326425207
31
729.98972697603
12
-148.328157299975
22
456.507127821674
32
831.384387633061
13
-75.0885432193108
23
474.090403485666
33
831.384387633061
0
3DFACE
5
B13
100
AcDbEntity
8
SHELLS
100
AcDbFace
10
-192.662864541762
20
592.955326425207
30
729.98972697603
11
-283.049514255642
21
555.515950256252
31
729.98972697603
12
-217.915439874982
22
427.683131610417
32
831.384387633061
13
-148.328157299975
23
456.507127821674
33
831.384387633061
0
3DFACE
5
B14
100
AcDbEntity
8
SHELLS
100
AcDbFace
10
-283.049514255642
20
555.515950256252
30
729.98972697603
11
-366.466545541067
21
504.39792774025
31
729.98972697603
12
-282.136921100387
22
388.328157299975
32
831.384387633061
13
-217.915439874982
23
427.683131610417
33
831.384387633061
0
3DFACE
5
B15
100
AcDbEntity
8
SHELLS
100
AcDbFace
10
-366.466545541067
20
504.39792774025
30
729.98972697603
11
-440.859954242536
21
440.859954242536
31
729.98972697603
12
-339.411254969543
22
339.411254969543
32
831.384387633061
13
-282.136921100387
23
388.328157299975
33
831.384387633061
0
3DFACE
5
B16
100
AcDbEntity
8
SHELLS
100
AcDbFace
10
-440.859954242536
20
440.859954242536
30
729.98972697603
11
-504.39792774025
21
366.466545541067
31
729.98972697603
12
-388.328157299975
22
282.136921100387
32
831.384387633061
13
-339.411254969543
23
339.411254969543
33
831.384387633061
0
3DFACE
5
B17
100
AcDbEntity
8
SHELLS
100
AcDbFace
10
-504.39792774025
20
366.466545541067
30
729.98972697603
11
-555.515950256252
21
283.049514255642
31
729.98972697603
12
-427.683131610416
22
217.915439874982
32
831.384387633061
13
-388.328157299975
23
282.136921100387
33
831.384387633061
0
3DFACE
5
B18
100
AcDbEntity
8
SHELLS
100
AcDbFace
10
-555.515950256252
20
283.049514255642
30
729.98972697603
11
-592.955326425207
21
192.662864541762
31
729.98972697603
12
-456.507127821674
22
148.328157299975
32
831.384387633061
13
-427.683131610416
23
217.915439874982
33
831.384387633061
0
3DFACE
5
B19
100
AcDbEntity
8
SHELLS
100
AcDbFace
10
-592.955326425207
20
192.662864541762
30
729.98972697603
11
-615.79417455167
21
97.5322156914762
31
729.98972697603
12
-474.090403485666
22
75.0885432193109
32
831.384387633061
13
-456.507127821674
23
148.328157299975
33
831.384387633061
0
3DFACE
5
B20
100
AcDbEntity
8
SHELLS
100
AcDbFace
10
-615.79417455167
20
97.5322156914762
30
729.98972697603
11
-623.470126396976
21
7.63505478204178E-14
31
729.98972697603
12
-480
22
5.87811049834741E-14
32
831.384387633061
13
-474.090403485666
23
75.0885432193109
33
831.384387633061
0
3DFACE
5
B21
100
AcDbEntity
8
SHELLS
100
AcDbFace
10
-623.470126396976
20
7.63505478204178E-14
30
729.98972697603
11
-615.79417455167
21
-97.532215691476
31
729.98972697603
12
-474.090403485666
22
-75.0885432193107
32
831.384387633061
13
-480
23
5.87811049834741E-14
33
831.384387633061
0
3DFACE
5
B22
100
AcDbEntity
8
SHELLS
100
AcDbFace
10
-615.79417455167
20
-97.532215691476
30
729.98972697603
11
-592.955326425207
21
-192.662864541762
31
729.98972697603
12
-456.507127821674
22
-148.328157299975
32
831.384387633061
13
-474.090403485666
23
-75.0885432193107
33
831.384387633061
0
3DFACE
5
B23
100
AcDbEntity
8
SHELLS
100
AcDbFace
10
-592.955326425207
20
-192.662864541762
30
729.98972697603
11
-555.515950256252
21
-283.049514255642
31
729.98972697603
12
-427.683131610417
22
-217.915439874982
32
831.384387633061
13
-456.507127821674
23
-148.328157299975
33
831.384387633061
0
3DFACE
5
B24
100
AcDbEntity
8
SHELLS
100
AcDbFace
10
-555.515950256252
20
-283.049514255642
30
729.98972697603
11
-504.39792774025
21
-366.466545541067
31
729.98972697603
12
-388.328157299975
22
-282.136921100387
32
831.384387633061
13
-427.683131610417
23
-217.915439874982
33
831.384387633061
0
3DFACE
5
B25
100
AcDbEntity
8
SHELLS
100
AcDbFace
10
-504.39792774025
20
-366.466545541067
30
729.98972697603
11
-440.859954242536
21
-440.859954242536
31
729.98972697603
12
-339.411254969543
22
-339.411254969543
32
831.384387633061
13
-388.328157299975
23
-282.136921100387
33
831.384387633061
0
3DFACE
5
B26
100
AcDbEntity
8
SHELLS
100
AcDbFace
10
-440.859954242536
20
-440.859954242536
30
729.98972697603
11
-366.466545541067
21
-504.39792774025
31
729.98972697603
12
-282.136921100387
22
-388.328157299975
32
831.384387633061
13
-339.411254969543
23
-339.411254969543
33
831.384387633061
0
3DFACE
5
B27
100
AcDbEntity
8
SHELLS
100
AcDbFace
10
-366.466545541067
20
-504.39792774025
30
729.98972697603
11
-283.049514255642
21
-555.515950256252
31
729.98972697603
12
-217.915439874982
22
-427.683131610416
32
831.384387633061
13
-282.136921100387
23
-388.328157299975
33
831.384387633061
0
3DFACE
5
B28
100
AcDbEntity
8
SHELLS
100
AcDbFace
10
-283.049514255642
20
-555.515950256252
30
729.98972697603
11
-192.662864541762
21
-592.955326425207
31
729.98972697603
12
-148.328157299975
22
-456.507127821674
32
831.384387633061
13
-217.915439874982
23
-427.683131610416
33
831.384387633061
0
3DFACE
5
B29
100
AcDbEntity
8
SHELLS
100
AcDbFace
10
-192.662864541762
20
-592.955326425207
30
729.98972697603
11
-97.5322156914762
21
-615.79417455167
31
729.98972697603
12
-75.0885432193109
22
-474.090403485666
32
831.384387633061
13
-148.328157299975
23
-456.507127821674
33
831.384387633061
0
3DFACE
5
B30
100
AcDbEntity
8
SHELLS
100
AcDbFace
10
-97.5322156914762
20
-615.79417455167
30
729.98972697603
11
-1.14525821730627E-13
21
-623.470126396976
31
729.98972697603
12
-8.81716574752112E-14
22
-480
32
831.384387633061
13
-75.0885432193109
23
-474.090403485666
33
831.384387633061
0
3DFACE
5
B31
100
AcDbEntity
8
SHELLS
100
AcDbFace
10
746.060122998692
20
0
30
604.147575407844
11
736.874884868783
21
116.709516229149
31
604.147575407844
12
615.79417455167
22
97.5322156914761
32
729.98972697603
13
623.470126396976
23
0
33
729.98972697603
0
3DFACE
5
B32
100
AcDbEntity
8
SHELLS
100
AcDbFace
10
736.874884868783
20
116.709516229149
30
604.147575407844
11
709.54534152587
21
230.545256832059
31
604.147575407844
12
592.955326425207
22
192.662864541762
32
729.98972697603
13
615.79417455167
23
97.5322156914761
33
729.98972697603
0
3DFACE
5
B33
100
AcDbEntity
8
SHELLS
100
AcDbFace
10
709.54534152587
20
230.545256832059
30
604.147575407844
11
664.744437028611
21
338.704208075924
31
604.147575407844
12
555.515950256252
22
283.049514255642
32
729.98972697603
13
592.955326425207
23
192.662864541762
33
729.98972697603
0
3DFACE
5
B34
100
AcDbEntity
8
SHELLS
100
AcDbFace
10
664.744437028611
20
338.704208075924
30
604.147575407844
11
603.575318331405
21
438.52313762214
31
604.147575407844
12
504.39792774025
22
366.466545541067
32
729.98972697603
13
555.515950256252
23
283.049514255642
33
729.98972697603
0
3DFACE
5
B35
100
AcDbEntity
8
SHELLS
100
AcDbFace
10
603.575318331405
20
438.52313762214
30
604.147575407844
11
527.544172145245
21
527.544172145245
31
604.147575407844
12
440.859954242536
22
440.859954242536
32
729.98972697603
13
504.39792774025
23
366.466545541067
33
729.98972697603
0
3DFACE
5
B36
100
AcDbEntity
8
SHELLS
100
AcDbFace
10
527.544172145245
20
527.544172145245
30
604.147575407844
11
438.52313762214
21
603.575318331405
31
604.147575407844
12
366.466545541067
22
504.39792774025
32
729.98972697603
13
440.859954242536
23
440.859954242536
33
729.98972697603
0
3DFACE
5
B37
100
AcDbEntity
8
SHELLS
100
AcDbFace
10
438.52313762214
20
603.575318331405
30
604.147575407844
11
338.704208075924
21
664.744437028611
31
604.147575407844
12
283.049514255642
22
555.515950256252
32
729.98972697603
13
366.466545541067
23
504.39792774025
33
729.98972697603
0
3DFACE
5
B38
100
AcDbEntity
8
SHELLS
100
AcDbFace
10
338.704208075924
20
664.744437028611
30
604.147575407844
11
230.545256832059
21
709.54534152587
31
604.147575407844
12
192.662864541762
22
592.955326425207
32
729.98972697603
13
283.049514255642
23
555.515950256252
33
729.98972697603
0
3DFACE
5
B39
100
AcDbEntity
8
SHELLS
100
AcDbFace
10
230.545256832059
20
709.54534152587
30
604.147575407844
11
116.709516229149
21
736.874884868783
31
604.147575407844
12
97.5322156914762
22
615.79417455167
32
729.98972697603
13
192.662864541762
23
592.955326425207
33
729.98972697603
0
3DFACE
5
B40
100
AcDbEntity
8
SHELLS
100
AcDbFace
10
116.709516229149
20
736.874884868783
30
604.147575407844
11
4.56814983478851E-14
21
746.060122998692
31
604.147575407844
12
3.81752739102089E-14
22
623.470126396976
32
729.98972697603
13
97.5322156914762
23
615.79417455167
33
729.98972697603
0
3DFACE
5
B41
100
AcDbEntity
8
SHELLS
100
AcDbFace
10
4.56814983478851E-14
20
746.060122998692
30
604.147575407844
11
-116.709516229149
21
736.874884868783
31
604.147575407844
12
-97.5322156914761
22
615.79417455167
32
729.98972697603
13
3.81752739102089E-14
23
623.470126396976
33
729.98972697603
0
3DFACE
5
B42
100
AcDbEntity
8
SHELLS
100
AcDbFace
10
-116.709516229149
20
736.874884868783
30
604.147575407844
11
-230.545256832059
21
709.54534152587
31
604.147575407844
12
-192.662864541762
22
592.955326425207
32
729.98972697603
13
-97.5322156914761
23
615.79417455167
33
729.98972697603
0
3DFACE
5
B43
100
AcDbEntity
8
SHELLS
100
AcDbFace
10
-230.545256832059
20
709.54534152587
30
604.147575407844
11
-338.704208075924
21
664.744437028611
31
604.147575407844
12
-283.049514255642
22
555.515950256252
32
729.98972697603
13
-192.662864541762
23
592.955326425207
33
729.98972697603
0
3DFACE
5
B44
100
AcDbEntity
8
SHELLS
100
AcDbFace
10
-338.704208075924
20
664.744437028611
30
604.147575407844
11
-438.52313762214
21
603.575318331405
31
604.147575407844
12
-366.466545541067
22
504.39792774025
32
729.98972697603
13
-283.049514255642
23
555.515950256252
33
729.98972697603
0
3DFACE
5
B45
100
AcDbEntity
8
SHELLS
100
AcDbFace
10
-438.52313762214
20
603.575318331405
30
604.147575407844
11
-527.544172145245
21
527.544172145245
31
604.147575407844
12
-440.859954242536
22
440.859954242536
32
729.98972697603
13
-366.466545541067
23
504.39792774025
33
729.98972697603
0
3DFACE
5
B46
100
AcDbEntity
8
SHELLS
100
AcDbFace
10
-527.544172145245
20
527.544172145245
30
604.147575407844
11
-603.575318331405
21
438.52313762214
31
604.147575407844
12
-504.39792774025
22
366.466545541067
32
729.98972697603
13
-440.859954242536
23
440.859954242536
33
729.98972697603
0
3DFACE
5
B47
100
AcDbEntity
8
SHELLS
100
AcDbFace
10
-603.575318331405
20
438.52313762214
30
604.147575407844
11
-664.744437028611
21
338.704208075924
31
604.147575407844
12
-555.515950256252
22
283.049514255642
32
729.98972697603
13
-504.39792774025
23
366.466545541067
33
729.98972697603
0
3DFACE
5
B48
100
AcDbEntity
8
SHELLS
100
AcDbFace
10
-664.744437028611
20
338.704208075924
30
604.147575407844
11
-709.54534152587
21
230.545256832059
31
604.147575407844
12
-592.955326425207
22
192.662864541762
32
729.98972697603
13
-555.515950256252
23
283.049514255642
33
729.98972697603
0
3DFACE
5
B49
100
AcDbEntity
8
SHELLS
100
AcDbFace
10
-709.54534152587
20
230.545256832059
30
604.147575407844
11
-736.874884868782
21
116.709516229149
31
604.147575407844
12
-615.79417455167
22
97.5322156914762
32
729.98972697603
13
-592.955326425207
23
192.662864541762
33
729.98972697603
0
3DFACE
5
B50
100
AcDbEntity
8
SHELLS
100
AcDbFace
10
-736.874884868782
20
116.709516229149
30
604.147575407844
11
-746.060122998692
21
9.13629966957703E-14
31
604.147575407844
12
-623.470126396976
22
7.63505478204178E-14
32
729.98972697603
13
-615.79417455167
23
97.5322156914762
33
729.98972697603
0
3DFACE
5
B51
100
AcDbEntity
8
SHELLS
100
AcDbFace
10
-746.060122998692
20
9.13629966957703E-14
30
604.147575407844
11
-736.874884868783
21
-116.709516229149
31
604.147575407844
12
-615.79417455167
22
-97.532215691476
32
729.98972697603
13
-623.470126396976
23
7.63505478204178E-14
33
729.98972697603
0
3DFACE
5
B52
100
AcDbEntity
8
SHELLS
100
AcDbFace
10
-736.874884868783
20
-116.709516229149
30
604.147575407844
11
-709.54534152587
21
-230.545256832059
31
604.147575407844
12
-592.955326425207
22
-192.662864541762
32
729.98972697603
13
-615.79417455167
23
-97.532215691476
33
729.98972697603
0
3DFACE
5
B53
100
AcDbEntity
8
SHELLS
100
AcDbFace
10
-709.54534152587
20
-230.545256832059
30
604.147575407844
11
-664.744437028611
21
-338.704208075924
31
604.147575407844
12
-555.515950256252
22
-283.049514255642
32
729.98972697603
13
-592.955326425207
23
-192.662864541762
33
729.98972697603
0
3DFACE
5
B54
100
AcDbEntity
8
SHELLS
100
AcDbFace
10
-664.744437028611
20
-338.704208075924
30
604.147575407844
11
-603.575318331406
21
-438.52313762214
31
604.147575407844
12
-504.39792774025
22
-366.466545541067
32
729.98972697603
13
-555.515950256252
23
-283.049514255642
33
729.98972697603
0
3DFACE
5
B55
100
AcDbEntity
8
SHELLS
100
AcDbFace
10
-603.575318331406
20
-438.52313762214
30
604.147575407844
11
-527.544172145245
21
-527.544172145245
31
604.147575407844
12
-440.859954242536
22
-440.859954242536
32
729.98972697603
13
-504.39792774025
23
-366.466545541067
33
729.98972697603
0
3DFACE
5
B56
100
AcDbEntity
8
SHELLS
100
AcDbFace
10
-527.544172145245
20
-527.544172145245
30
604.147575407844
11
-438.52313762214
21
-603.575318331405
31
604.147575407844
12
-366.466545541067
22
-504.39792774025
32
729.98972697603
13
-440.859954242536
23
-440.859954242536
33
729.98972697603
0
3DFACE
5
B57
100
AcDbEntity
8
SHELLS
100
AcDbFace
10
-438.52313762214
20
-603.575318331405
30
604.147575407844
11
-338.704208075924
21
-664.744437028611
31
604.147575407844
12
-283.049514255642
22
-555.515950256252
32
729.98972697603
13
-366.466545541067
23
-504.39792774025
33
729.98972697603
0
3DFACE
5
B58
100
AcDbEntity
8
SHELLS
100
AcDbFace
10
-338.704208075924
20
-664.744437028611
30
604.147575407844
11
-230.54525683206
21
-709.54534152587
31
604.147575407844
12
-192.662864541762
22
-592.955326425207
32
729.98972697603
13
-283.049514255642
23
-555.515950256252
33
729.98972697603
0
3DFACE
5
B59
100
AcDbEntity
8
SHELLS
100
AcDbFace
10
-230.54525683206
20
-709.54534152587
30
604.147575407844
11
-116.709516229149
21
-736.874884868782
31
604.147575407844
12
-97.5322156914762
22
-615.79417455167
32
729.98972697603
13
-192.662864541762
23
-592.955326425207
33
729.98972697603
0
3DFACE
5
B60
100
AcDbEntity
8
SHELLS
100
AcDbFace
10
-116.709516229149
20
-736.874884868782
30
604.147575407844
11
-1.37044495043655E-13
21
-746.060122998692
31
604.147575407844
12
-1.14525821730627E-13
22
-623.470126396976
32
729.98972697603
13
-97.5322156914762
23
-615.79417455167
33
729.98972697603
0
3DFACE
5
B61
100
AcDbEntity
8
SHELLS
100
AcDbFace
10
843.664428155487
20
0
30
458.072409849224
11
833.277519064039
21
131.978193491976
31
458.072409849224
12
736.874884868783
22
116.709516229149
32
604.147575407844
13
746.060122998692
23
0
33
604.147575407844
0
3DFACE
5
B62
100
AcDbEntity
8
SHELLS
100
AcDbFace
10
833.277519064039
20
131.978193491976
30
458.072409849224
11
802.3725519637
21
260.706645849667
31
458.072409849224
12
709.54534152587
22
230.545256832059
32
604.147575407844
13
736.874884868783
23
116.709516229149
33
604.147575407844
0
3DFACE
5
B63
100
AcDbEntity
8
SHELLS
100
AcDbFace
10
802.3725519637
20
260.706645849667
30
458.072409849224
11
751.710509712187
21
383.015635350788
31
458.072409849224
12
664.744437028611
22
338.704208075924
32
604.147575407844
13
709.54534152587
23
230.545256832059
33
604.147575407844
0
3DFACE
5
B64
100
AcDbEntity
8
SHELLS
100
AcDbFace
10
751.710509712187
20
383.015635350788
30
458.072409849224
11
682.538859927411
21
495.893508753558
31
458.072409849224
12
603.575318331405
22
438.52313762214
32
604.147575407844
13
664.744437028611
23
338.704208075924
33
604.147575407844
0
3DFACE
5
B65
100
AcDbEntity
8
SHELLS
100
AcDbFace
10
682.538859927411
20
495.893508753558
30
458.072409849224
11
596.560838194616
21
596.560838194615
31
458.072409849224
12
527.544172145245
22
527.544172145245
32
604.147575407844
13
603.575318331405
23
438.52313762214
33
604.147575407844
0
3DFACE
5
B66
100
AcDbEntity
8
SHELLS
100
AcDbFace
10
596.560838194616
20
596.560838194615
30
458.072409849224
11
495.893508753558
21
682.538859927411
31
458.072409849224
12
438.52313762214
22
603.575318331405
32
604.147575407844
13
527.544172145245
23
527.544172145245
33
604.147575407844
0
3DFACE
5
B67
100
AcDbEntity
8
SHELLS
100
AcDbFace
10
495.893508753558
20
682.538859927411
30
458.072409849224
11
383.015635350788
21
751.710509712187
31
458.072409849224
12
338.704208075924
22
664.744437028611
32
604.147575407844
13
438.52313762214
23
603.575318331405
33
604.147575407844
0
3DFACE
5
B68
100
AcDbEntity
8
SHELLS
100
AcDbFace
10
383.015635350788
20
751.710509712187
30
458.072409849224
11
260.706645849667
21
802.3725519637
31
458.072409849224
12
230.545256832059
22
709.54534152587
32
604.147575407844
13
338.704208075924
23
664.744437028611
33
604.147575407844
0
3DFACE
5
B69
100
AcDbEntity
8
SHELLS
100
AcDbFace
10
260.706645849667
20
802.3725519637
30
458.072409849224
11
131.978193491976
21
833.277519064039
31
458.072409849224
12
116.709516229149
22
736.874884868783
32
604.147575407844
13
230.545256832059
23
709.54534152587
33
604.147575407844
0
3DFACE
5
B70
100
AcDbEntity
8
SHELLS
100
AcDbFace
10
131.978193491976
20
833.277519064039
30
458.072409849224
11
5.16578409606566E-14
21
843.664428155487
31
458.072409849224
12
4.56814983478851E-14
22
746.060122998692
32
604.147575407844
13
116.709516229149
23
736.874884868783
33
604.147575407844
0
3DFACE
5
B71
100
AcDbEntity
8
SHELLS
100
AcDbFace
10
5.16578409606566E-14
20
843.664428155487
30
458.072409849224
11
-131.978193491976
21
833.277519064039
31
458.072409849224
12
-116.709516229149
22
736.874884868783
32
604.147575407844
13
4.56814983478851E-14
23
746.060122998692
33
604.147575407844
0
3DFACE
5
B72
100
AcDbEntity
8
SHELLS
100
AcDbFace
10
-131.978193491976
20
833.277519064039
30
458.072409849224
11
-260.706645849667
21
802.3725519637
31
458.072409849224
12
-230.545256832059
22
709.54534152587
32
604.147575407844
13
-116.709516229149
23
736.874884868783
33
604.147575407844
0
3DFACE
5
B73
100
AcDbEntity
8
SHELLS
100
AcDbFace
10
-260.706645849667
20
802.3725519637
30
458.072409849224
11
-383.015635350788
21
751.710509712187
31
458.072409849224
12
-338.704208075924
22
664.744437028611
32
604.147575407844
13
-230.545256832059
23
709.54534152587
33
604.147575407844
0
3DFACE
5
B74
100
AcDbEntity
8
SHELLS
100
AcDbFace
10
-383.015635350788
20
751.710509712187
30
458.072409849224
11
-495.893508753558
21
682.538859927411
31
458.072409849224
12
-438.52313762214
22
603.575318331405
32
604.147575407844
13
-338.704208075924
23
664.744437028611
33
604.147575407844
0
3DFACE
5
B75
100
AcDbEntity
8
SHELLS
100
AcDbFace
10
-495.893508753558
20
682.538859927411
30
458.072409849224
11
-596.560838194615
21
596.560838194616
31
458.072409849224
12
-527.544172145245
22
527.544172145245
32
604.147575407844
13
-438.52313762214
23
603.575318331405
33
604.147575407844
0
3DFACE
5
B76
100
AcDbEntity
8
SHELLS
100
AcDbFace
10
-596.560838194615
20
596.560838194616
30
458.072409849224
11
-682.538859927411
21
495.893508753558
31
458.072409849224
12
-603.575318331405
22
438.52313762214
32
604.147575407844
13
-527.544172145245
23
527.544172145245
33
604.147575407844
0
3DFACE
5
B77
100
AcDbEntity
8
SHELLS
100
AcDbFace
10
-682.538859927411
20
495.893508753558
30
458.072409849224
11
-751.710509712187
21
383.015635350788
31
458.072409849224
12
-664.744437028611
22
338.704208075924
32
604.147575407844
13
-603.575318331405
23
438.52313762214
33
604.147575407844
0
3DFACE
5
B78
100
AcDbEntity
8
SHELLS
100
AcDbFace
10
-751.710509712187
20
383.015635350788
30
458.072409849224
11
-802.3725519637
21
260.706645849667
31
458.072409849224
12
-709.54534152587
22
230.545256832059
32
604.147575407844
13
-664.744437028611
23
338.704208075924
33
604.147575407844
0
3DFACE
5
B79
100
AcDbEntity
8
SHELLS
100
AcDbFace
10
-802.3725519637
20
260.706645849667
30
458.072409849224
11
-833.277519064038
21
131.978193491976
31
458.072409849224
12
-736.874884868782
22
116.709516229149
32
604.147575407844
13
-709.54534152587
23
230.545256832059
33
604.147575407844
0
3DFACE
5
B80
100
AcDbEntity
8
SHELLS
100
AcDbFace
10
-833.277519064038
20
131.978193491976
30
458.072409849224
11
-843.664428155487
21
1.03315681921313E-13
31
458.072409849224
12
-746.060122998692
22
9.13629966957703E-14
32
604.147575407844
13
-736.874884868782
23
116.709516229149
33
604.147575407844
0
3DFACE
5
B81
100
AcDbEntity
8
SHELLS
100
AcDbFace
10
-843.664428155487
20
1.03315681921313E-13
30
458.072409849224
11
-833.277519064039
21
-131.978193491976
31
458.072409849224
12
-736.874884868783
22
-116.709516229149
32
604.147575407844
13
-746.060122998692
23
9.13629966957703E-14
33
604.147575407844
0
3DFACE
5
B82
100
AcDbEntity
8
SHELLS
100
AcDbFace
10
-833.277519064039
20
-131.978193491976
30
458.072409849224
11
-802.3725519637
21
-260.706645849667
31
458.072409849224
12
-709.54534152587
22
-230.545256832059
32
604.147575407844
13
-736.874884868783
23
-116.709516229149
33
604.147575407844
0
3DFACE
5
B83
100
AcDbEntity
8
SHELLS
100
AcDbFace
10
-802.3725519637
20
-260.706645849667
30
458.072409849224
11
-751.710509712187
21
-383.015635350788
31
458.072409849224
12
-664.744437028611
22
-338.704208075924
32
604.147575407844
13
-709.54534152587
23
-230.545256832059
33
604.147575407844
0
3DFACE
5
B84
100
AcDbEntity
8
SHELLS
100
AcDbFace
10
-751.710509712187
20
-383.015635350788
30
458.072409849224
11
-682.538859927411
21
-495.893508753558
31
458.072409849224
12
-603.575318331406
22
-438.52313762214
32
604.147575407844
13
-664.744437028611
23
-338.704208075924
33
604.147575407844
0
3DFACE
5
B85
100
AcDbEntity
8
SHELLS
100
AcDbFace
10
-682.538859927411
20
-495.893508753558
30
458.072409849224
11
-596.560838194616
21
-596.560838194615
31
458.072409849224
12
-527.544172145245
22
-527.544172145245
32
604.147575407844
13
-603.575318331406
23
-438.52313762214
33
604.147575407844
0
3DFACE
5
B86
100
AcDbEntity
8
SHELLS
100
AcDbFace
10
-596.560838194616
20
-596.560838194615
30
458.072409849224
11
-495.893508753558
21
-682.538859927411
31
458.072409849224
12
-438.52313762214
22
-603.575318331405
32
604.147575407844
13
-527.544172145245
23
-527.544172145245
33
604.147575407844
0
3DFACE
5
B87
100
AcDbEntity
8
SHELLS
100
AcDbFace
10
-495.893508753558
20
-682.538859927411
30
458.072409849224
11
-383.015635350789
21
-751.710509712187
31
458.072409849224
12
-338.704208075924
22
-664.744437028611
32
604.147575407844
13
-438.52313762214
23
-603.575318331405
33
604.147575407844
0
3DFACE
5
B88
100
AcDbEntity
8
SHELLS
100
AcDbFace
10
-383.015635350789
20
-751.710509712187
30
458.072409849224
11
-260.706645849667
21
-802.3725519637
31
458.072409849224
12
-230.54525683206
22
-709.54534152587
32
604.147575407844
13
-338.704208075924
23
-664.744437028611
33
604.147575407844
0
3DFACE
5
B89
100
AcDbEntity
8
SHELLS
100
AcDbFace
10
-260.706645849667
20
-802.3725519637
30
458.072409849224
11
-131.978193491976
21
-833.277519064038
31
458.072409849224
12
-116.709516229149
22
-736.874884868782
32
604.147575407844
13
-230.54525683206
23
-709.54534152587
33
604.147575407844
0
3DFACE
5
B90
100
AcDbEntity
8
SHELLS
100
AcDbFace
10
-131.978193491976
20
-833.277519064038
30
458.072409849224
11
-1.5497352288197E-13
21
-843.664428155487
31
458.072409849224
12
-1.37044495043655E-13
22
-746.060122998692
32
604.147575407844
13
-116.709516229149
23
-736.874884868782
33
604.147575407844
0
3DFACE
5
B91
100
AcDbEntity
8
SHELLS
100
AcDbFace
10
913.014255643347
20
0
30
296.65631459995
11
901.773535096083
21
142.826896655672
31
296.65631459995
12
833.277519064039
22
131.978193491976
32
458.072409849224
13
843.664428155487
23
0
33
458.072409849224
0
3DFACE
5
B92
100
AcDbEntity
8
SHELLS
100
AcDbFace
10
901.773535096083
20
142.826896655672
30
296.65631459995
11
868.328157299975
21
282.136921100387
31
296.65631459995
12
802.3725519637
22
260.706645849667
32
458.072409849224
13
833.277519064039
23
131.978193491976
33
458.072409849224
0
3DFACE
5
B93
100
AcDbEntity
8
SHELLS
100
AcDbFace
10
868.328157299975
20
282.136921100387
30
296.65631459995
11
813.501658455209
21
414.499798188854
31
296.65631459995
12
751.710509712187
22
383.015635350788
32
458.072409849224
13
802.3725519637
23
260.706645849667
33
458.072409849224
0
3DFACE
5
B94
100
AcDbEntity
8
SHELLS
100
AcDbFace
10
813.501658455209
20
414.499798188854
30
296.65631459995
11
738.644048922061
21
536.65631459995
31
296.65631459995
12
682.538859927411
22
495.893508753558
32
458.072409849224
13
751.710509712187
23
383.015635350788
33
458.072409849224
0
3DFACE
5
B95
100
AcDbEntity
8
SHELLS
100
AcDbFace
10
738.644048922061
20
536.65631459995
30
296.65631459995
11
645.598571485399
21
645.598571485399
31
296.65631459995
12
596.560838194616
22
596.560838194615
32
458.072409849224
13
682.538859927411
23
495.893508753558
33
458.072409849224
0
3DFACE
5
B96
100
AcDbEntity
8
SHELLS
100
AcDbFace
10
645.598571485399
20
645.598571485399
30
296.65631459995
11
536.65631459995
21
738.644048922061
31
296.65631459995
12
495.893508753558
22
682.538859927411
32
458.072409849224
13
596.560838194616
23
596.560838194615
33
458.072409849224
0
3DFACE
5
B97
100
AcDbEntity
8
SHELLS
100
AcDbFace
10
536.65631459995
20
738.644048922061
30
296.65631459995
11
414.499798188854
21
813.501658455209
31
296.65631459995
12
383.015635350788
22
751.710509712187
32
458.072409849224
13
495.893508753558
23
682.538859927411
33
458.072409849224
0
3DFACE
5
B98
100
AcDbEntity
8
SHELLS
100
AcDbFace
10
414.499798188854
20
813.501658455209
30
296.65631459995
11
282.136921100387
21
868.328157299975
31
296.65631459995
12
260.706645849667
22
802.3725519637
32
458.072409849224
13
383.015635350788
23
751.710509712187
33
458.072409849224
0
3DFACE
5
B99
100
AcDbEntity
8
SHELLS
100
AcDbFace
10
282.136921100387
20
868.328157299975
30
296.65631459995
11
142.826896655672
21
901.773535096083
31
296.65631459995
12
131.978193491976
22
833.277519064039
32
458.072409849224
13
260.706645849667
23
802.3725519637
33
458.072409849224
0
3DFACE
5
B100
100
AcDbEntity
8
SHELLS
100
AcDbFace
10
142.826896655672
20
901.773535096083
30
296.65631459995
11
5.59041529295626E-14
21
913.014255643347
31
296.65631459995
12
5.16578409606566E-14
22
843.664428155487
32
458.072409849224
13
131.978193491976
23
833.277519064039
33
458.072409849224
0
3DFACE
5
B101
100
AcDbEntity
8
SHELLS
100
AcDbFace
10
5.59041529295626E-14
20
913.014255643347
30
296.65631459995
11
-142.826896655672
21
901.773535096083
31
296.65631459995
12
-131.978193491976
22
833.277519064039
32
458.072409849224
13
5.16578409606566E-14
23
843.664428155487
33
458.072409849224
0
3DFACE
5
B102
100
AcDbEntity
8
SHELLS
100
AcDbFace
10
-142.826896655672
20
901.773535096083
30
296.65631459995
11
-282.136921100387
21
868.328157299975
31
296.65631459995
12
-260.706645849667
22
802.3725519637
32
458.072409849224
13
-131.978193491976
23
833.277519064039
33
458.072409849224
0
3DFACE
5
B103
100
AcDbEntity
8
SHELLS
100
AcDbFace
10
-282.136921100387
20
868.328157299975
30
296.65631459995
11
-414.499798188854
21
813.501658455209
31
296.65631459995
12
-383.015635350788
22
751.710509712187
32
458.072409849224
13
-260.706645849667
23
802.3725519637
33
458.072409849224
0
3DFACE
5
B104
100
AcDbEntity
8
SHELLS
100
AcDbFace
10
-414.499798188854
20
813.501658455209
30
296.65631459995
11
-536.656314599949
21
738.644048922061
31
296.65631459995
12
-495.893508753558
22
682.538859927411
32
458.072409849224
13
-383.015635350788
23
751.710509712187
33
458.072409849224
0
3DFACE
5
B105
100
AcDbEntity
8
SHELLS
100
AcDbFace
10
-536.656314599949
20
738.644048922061
30
296.65631459995
11
-645.598571485399
21
645.598571485399
31
296.65631459995
12
-596.560838194615
22
596.560838194616
32
458.072409849224
13
-495.893508753558
23
682.538859927411
33
458.072409849224
0
3DFACE
5
B106
100
AcDbEntity
8
SHELLS
100
AcDbFace
10
-645.598571485399
20
645.598571485399
30
296.65631459995
11
-738.644048922061
21
536.65631459995
31
296.65631459995
12
-682.538859927411
22
495.893508753558
32
458.072409849224
13
-596.560838194615
23
596.560838194616
33
458.072409849224
0
3DFACE
5
B107
100
AcDbEntity
8
SHELLS
100
AcDbFace
10
-738.644048922061
20
536.65631459995
30
296.65631459995
11
-813.501658455209
21
414.499798188854
31
296.65631459995
12
-751.710509712187
22
383.015635350788
32
458.072409849224
13
-682.538859927411
23
495.893508753558
33
458.072409849224
0
3DFACE
5
B108
100
AcDbEntity
8
SHELLS
100
AcDbFace
10
-813.501658455209
20
414.499798188854
30
296.65631459995
11
-868.328157299975
21
282.136921100387
31
296.65631459995
12
-802.3725519637
22
260.706645849667
32
458.072409849224
13
-751.710509712187
23
383.015635350788
33
458.072409849224
0
3DFACE
5
B109
100
AcDbEntity
8
SHELLS
100
AcDbFace
10
-868.328157299975
20
282.136921100387
30
296.65631459995
11
-901.773535096083
21
142.826896655672
31
296.65631459995
12
-833.277519064038
22
131.978193491976
32
458.072409849224
13
-802.3725519637
23
260.706645849667
33
458.072409849224
0
3DFACE
5
B110
100
AcDbEntity
8
SHELLS
100
AcDbFace
10
-901.773535096083
20
142.826896655672
30
296.65631459995
11
-913.014255643347
21
1.11808305859125E-13
31
296.65631459995
12
-843.664428155487
22
1.03315681921313E-13
32
458.072409849224
13
-833.277519064038
23
131.978193491976
33
458.072409849224
0
3DFACE
5
B111
100
AcDbEntity
8
SHELLS
100
AcDbFace
10
-913.014255643347
20
1.11808305859125E-13
30
296.65631459995
11
-901.773535096083
21
-142.826896655672
31
296.65631459995
12
-833.277519064039
22
-131.978193491976
32
458.072409849224
13
-843.664428155487
23
1.03315681921313E-13
33
458.072409849224
0
3DFACE
5
B112
100
AcDbEntity
8
SHELLS
100
AcDbFace
10
-901.773535096083
20
-142.826896655672
30
296.65631459995
11
-868.328157299975
21
-282.136921100387
31
296.65631459995
12
-802.3725519637
22
-260.706645849667
32
458.072409849224
13
-833.277519064039
23
-131.978193491976
33
458.072409849224
0
3DFACE
5
B113
100
AcDbEntity
8
SHELLS
100
AcDbFace
10
-868.328157299975
20
-282.136921100387
30
296.65631459995
11
-813.501658455209
21
-414.499798188854
31
296.65631459995
12
-751.710509712187
22
-383.015635350788
32
458.072409849224
13
-802.3725519637
23
-260.706645849667
33
458.072409849224
0
3DFACE
5
B114
100
AcDbEntity
8
SHELLS
100
AcDbFace
10
-813.501658455209
20
-414.499798188854
30
296.65631459995
11
-738.644048922061
21
-536.656314599949
31
296.65631459995
12
-682.538859927411
22
-495.893508753558
32
458.072409849224
13
-751.710509712187
23
-383.015635350788
33
458.072409849224
0
3DFACE
5
B115
100
AcDbEntity
8
SHELLS
100
AcDbFace
10
-738.644048922061
20
-536.656314599949
30
296.65631459995
11
-645.598571485399
21
-645.598571485399
31
296.65631459995
12
-596.560838194616
22
-596.560838194615
32
458.072409849224
13
-682.538859927411
23
-495.893508753558
33
458.072409849224
0
3DFACE
5
B116
100
AcDbEntity
8
SHELLS
100
AcDbFace
10
-645.598571485399
20
-645.598571485399
30
296.65631459995
11
-536.65631459995
21
-738.644048922061
31
296.65631459995
12
-495.893508753558
22
-682.538859927411
32
458.072409849224
13
-596.560838194616
23
-596.560838194615
33
458.072409849224
0
3DFACE
5
B117
100
AcDbEntity
8
SHELLS
100
AcDbFace
10
-536.65631459995
20
-738.644048922061
30
296.65631459995
11
-414.499798188854
21
-813.501658455209
31
296.65631459995
12
-383.015635350789
22
-751.710509712187
32
458.072409849224
13
-495.893508753558
23
-682.538859927411
33
458.072409849224
0
3DFACE
5
B118
100
AcDbEntity
8
SHELLS
100
AcDbFace
10
-414.499798188854
20
-813.501658455209
30
296.65631459995
11
-282.136921100387
21
-868.328157299975
31
296.65631459995
12
-260.706645849667
22
-802.3725519637
32
458.072409849224
13
-383.015635350789
23
-751.710509712187
33
458.072409849224
0
3DFACE
5
B119
100
AcDbEntity
8
SHELLS
100
AcDbFace
10
-282.136921100387
20
-868.328157299975
30
296.65631459995
11
-142.826896655672
21
-901.773535096083
31
296.65631459995
12
-131.978193491976
22
-833.277519064038
32
458.072409849224
13
-260.706645849667
23
-802.3725519637
33
458.072409849224
0
3DFACE
5
B120
100
AcDbEntity
8
SHELLS
100
AcDbFace
10
-142.826896655672
20
-901.773535096083
30
296.65631459995
11
-1.67712458788688E-13
21
-913.014255643347
31
296.65631459995
12
-1.5497352288197E-13
22
-843.664428155487
32
458.072409849224
13
-131.978193491976
23
-833.277519064038
33
458.072409849224
0
3DFACE
5
B121
100
AcDbEntity
8
SHELLS
100
AcDbFace
10
951.787066918858
20
0
30
125.30514453125
11
940.068988725
21
148.892300645662
31
125.30514453125
12
901.773535096083
22
142.826896655672
32
296.65631459995
13
913.014255643347
23
0
33
296.65631459995
0
3DFACE
5
B122
100
AcDbEntity
8
SHELLS
100
AcDbFace
10
940.068988725
20
148.892300645662
30
125.30514453125
11
905.203292118631
21
294.118378704212
31
125.30514453125
12
868.328157299975
22
282.136921100387
32
296.65631459995
13
901.773535096083
23
142.826896655672
33
296.65631459995
0
3DFACE
5
B123
100
AcDbEntity
8
SHELLS
100
AcDbFace
10
905.203292118631
20
294.118378704212
30
125.30514453125
11
848.048486262813
21
432.10228615613
31
125.30514453125
12
813.501658455209
22
414.499798188854
32
296.65631459995
13
868.328157299975
23
282.136921100387
33
296.65631459995
0
3DFACE
5
B124
100
AcDbEntity
8
SHELLS
100
AcDbFace
10
848.048486262813
20
432.10228615613
30
125.30514453125
11
770.011912163641
21
559.446401257614
31
125.30514453125
12
738.644048922061
22
536.65631459995
32
296.65631459995
13
813.501658455209
23
414.499798188854
33
296.65631459995
0
3DFACE
5
B125
100
AcDbEntity
8
SHELLS
100
AcDbFace
10
770.011912163641
20
559.446401257614
30
125.30514453125
11
673.015089263979
21
673.015089263979
31
125.30514453125
12
645.598571485399
22
645.598571485399
32
296.65631459995
13
738.644048922061
23
536.65631459995
33
296.65631459995
0
3DFACE
5
B126
100
AcDbEntity
8
SHELLS
100
AcDbFace
10
673.015089263979
20
673.015089263979
30
125.30514453125
11
559.446401257614
21
770.011912163641
31
125.30514453125
12
536.65631459995
22
738.644048922061
32
296.65631459995
13
645.598571485399
23
645.598571485399
33
296.65631459995
0
3DFACE
5
B127
100
AcDbEntity
8
SHELLS
100
AcDbFace
10
559.446401257614
20
770.011912163641
30
125.30514453125
11
432.10228615613
21
848.048486262813
31
125.30514453125
12
414.499798188854
22
813.501658455209
32
296.65631459995
13
536.65631459995
23
738.644048922061
33
296.65631459995
0
3DFACE
5
B128
100
AcDbEntity
8
SHELLS
100
AcDbFace
10
432.10228615613
20
848.048486262813
30
125.30514453125
11
294.118378704212
21
905.203292118631
31
125.30514453125
12
282.136921100387
22
868.328157299975
32
296.65631459995
13
414.499798188854
23
813.501658455209
33
296.65631459995
0
3DFACE
5
B129
100
AcDbEntity
8
SHELLS
100
AcDbFace
10
294.118378704212
20
905.203292118631
30
125.30514453125
11
148.892300645662
21
940.068988725
31
125.30514453125
12
142.826896655672
22
901.773535096083
32
296.65631459995
13
282.136921100387
23
868.328157299975
33
296.65631459995
0
3DFACE
5
B130
100
AcDbEntity
8
SHELLS
100
AcDbFace
10
148.892300645662
20
940.068988725
30
125.30514453125
11
5.82782244817399E-14
21
951.787066918858
31
125.30514453125
12
5.59041529295626E-14
22
913.014255643347
32
296.65631459995
13
142.826896655672
23
901.773535096083
33
296.65631459995
0
3DFACE
5
B131
100
AcDbEntity
8
SHELLS
100
AcDbFace
10
5.82782244817399E-14
20
951.787066918858
30
125.30514453125
11
-148.892300645662
21
940.068988725
31
125.30514453125
12
-142.826896655672
22
901.773535096083
32
296.65631459995
13
5.59041529295626E-14
23
913.014255643347
33
296.65631459995
0
3DFACE
5
B132
100
AcDbEntity
8
SHELLS
100
AcDbFace
10
-148.892300645662
20
940.068988725
30
125.30514453125
11
-294.118378704212
21
905.203292118631
31
125.30514453125
12
-282.136921100387
22
868.328157299975
32
296.65631459995
13
-142.826896655672
23
901.773535096083
33
296.65631459995
0
3DFACE
5
B133
100
AcDbEntity
8
SHELLS
100
AcDbFace
10
-294.118378704212
20
905.203292118631
30
125.30514453125
11
-432.10228615613
21
848.048486262813
31
125.30514453125
12
-414.499798188854
22
813.501658455209
32
296.65631459995
13
-282.136921100387
23
868.328157299975
33
296.65631459995
0
3DFACE
5
B134
100
AcDbEntity
8
SHELLS
100
AcDbFace
10
-432.10228615613
20
848.048486262813
30
125.30514453125
11
-559.446401257614
21
770.011912163641
31
125.30514453125
12
-536.656314599949
22
738.644048922061
32
296.65631459995
13
-414.499798188854
23
813.501658455209
33
296.65631459995
0
3DFACE
5
B135
100
AcDbEntity
8
SHELLS
100
AcDbFace
10
-559.446401257614
20
770.011912163641
30
125.30514453125
11
-673.015089263979
21
673.015089263979
31
125.30514453125
12
-645.598571485399
22
645.598571485399
32
296.65631459995
13
-536.656314599949
23
738.644048922061
33
296.65631459995
0
3DFACE
5
B136
100
AcDbEntity
8
SHELLS
100
AcDbFace
10
-673.015089263979
20
673.015089263979
30
125.30514453125
11
-770.011912163641
21
559.446401257614
31
125.30514453125
12
-738.644048922061
22
536.65631459995
32
296.65631459995
13
-645.598571485399
23
645.598571485399
33
296.65631459995
0
3DFACE
5
B137
100
AcDbEntity
8
SHELLS
100
AcDbFace
10
-770.011912163641
20
559.446401257614
30
125.30514453125
11
-848.048486262813
21
432.10228615613
31
125.30514453125
12
-813.501658455209
22
414.499798188854
32
296.65631459995
13
-738.644048922061
23
536.65631459995
33
296.65631459995
0
3DFACE
5
B138
100
AcDbEntity
8
SHELLS
100
AcDbFace
10
-848.048486262813
20
432.10228615613
30
125.30514453125
11
-905.203292118631
21
294.118378704213
31
125.30514453125
12
-868.328157299975
22
282.136921100387
32
296.65631459995
13
-813.501658455209
23
414.499798188854
33
296.65631459995
0
3DFACE
5
B139
100
AcDbEntity
8
SHELLS
100
AcDbFace
10
-905.203292118631
20
294.118378704213
30
125.30514453125
11
-940.068988725
21
148.892300645662
31
125.30514453125
12
-901.773535096083
22
142.826896655672
32
296.65631459995
13
-868.328157299975
23
282.136921100387
33
296.65631459995
0
3DFACE
5
B140
100
AcDbEntity
8
SHELLS
100
AcDbFace
10
-940.068988725
20
148.892300645662
30
125.30514453125
11
-951.787066918858
21
1.1655644896348E-13
31
125.30514453125
12
-913.014255643347
22
1.11808305859125E-13
32
296.65631459995
13
-901.773535096083
23
142.826896655672
33
296.65631459995
0
3DFACE
5
B141
100
AcDbEntity
8
SHELLS
100
AcDbFace
10
-951.787066918858
20
1.1655644896348E-13
30
125.30514453125
11
-940.068988725
21
-148.892300645662
31
125.30514453125
12
-901.773535096083
22
-142.826896655672
32
296.65631459995
13
-913.014255643347
23
1.11808305859125E-13
33
296.65631459995
0
3DFACE
5
B142
100
AcDbEntity
8
SHELLS
100
AcDbFace
10
-940.068988725
20
-148.892300645662
30
125.30514453125
11
-905.203292118631
21
-294.118378704212
31
125.30514453125
12
-868.328157299975
22
-282.136921100387
32
296.65631459995
13
-901.773535096083
23
-142.826896655672
33
296.65631459995
0
3DFACE
5
B143
100
AcDbEntity
8
SHELLS
100
AcDbFace
10
-905.203292118631
20
-294.118378704212
30
125.30514453125
11
-848.048486262813
21
-432.10228615613
31
125.30514453125
12
-813.501658455209
22
-414.499798188854
32
296.65631459995
13
-868.328157299975
23
-282.136921100387
33
296.65631459995
0
3DFACE
5
B144
100
AcDbEntity
8
SHELLS
100
AcDbFace
10
-848.048486262813
20
-432.10228615613
30
125.30514453125
11
-770.011912163642
21
-559.446401257614
31
125.30514453125
12
-738.644048922061
22
-536.656314599949
32
296.65631459995
13
-813.501658455209
23
-414.499798188854
33
296.65631459995
0
3DFACE
5
B145
100
AcDbEntity
8
SHELLS
100
AcDbFace
10
-770.011912163642
20
-559.446401257614
30
125.30514453125
11
-673.015089263979
21
-673.015089263979
31
125.30514453125
12
-645.598571485399
22
-645.598571485399
32
296.65631459995
13
-738.644048922061
23
-536.656314599949
33
296.65631459995
0
3DFACE
5
B146
100
AcDbEntity
8
SHELLS
100
AcDbFace
10
-673.015089263979
20
-673.015089263979
30
125.30514453125
11
-559.446401257614
21
-770.011912163641
31
125.30514453125
12
-536.65631459995
22
-738.644048922061
32
296.65631459995
13
-645.598571485399
23
-645.598571485399
33
296.65631459995
0
3DFACE
5
B147
100
AcDbEntity
8
SHELLS
100
AcDbFace
10
-559.446401257614
20
-770.011912163641
30
125.30514453125
11
-432.10228615613
21
-848.048486262813
31
125.30514453125
12
-414.499798188854
22
-813.501658455209
32
296.65631459995
13
-536.65631459995
23
-738.644048922061
33
296.65631459995
0
3DFACE
5
B148
100
AcDbEntity
8
SHELLS
100
AcDbFace
10
-432.10228615613
20
-848.048486262813
30
125.30514453125
11
-294.118378704213
21
-905.203292118631
31
125.30514453125
12
-282.136921100387
22
-868.328157299975
32
296.65631459995
13
-414.499798188854
23
-813.501658455209
33
296.65631459995
0
3DFACE
5
B149
100
AcDbEntity
8
SHELLS
100
AcDbFace
10
-294.118378704213
20
-905.203292118631
30
125.30514453125
11
-148.892300645662
21
-940.068988725
31
125.30514453125
12
-142.826896655672
22
-901.773535096083
32
296.65631459995
13
-282.136921100387
23
-868.328157299975
33
296.65631459995
0
3DFACE
5
B150
100
AcDbEntity
8
SHELLS
100
AcDbFace
10
-148.892300645662
20
-940.068988725
30
125.30514453125
11
-1.7483467344522E-13
21
-951.787066918858
31
125.30514453125
12
-1.67712458788688E-13
22
-913.014255643347
32
296.65631459995
13
-142.826896655672
23
-901.773535096083
33
296.65631459995
0
3DFACE
5
B151
100
AcDbEntity
8
SHELLS
100
AcDbFace
10
958.684353364391
20
0
30
-50.2425179932261
11
946.881358128998
21
149.971273960998
31
-50.2425179932261
12
940.068988725
22
148.892300645662
32
125.30514453125
13
951.787066918858
23
0
33
125.30514453125
0
3DFACE
5
B152
100
AcDbEntity
8
SHELLS
100
AcDbFace
10
946.881358128998
20
149.971273960998
30
-50.2425179932261
11
911.763001337409
21
296.249757430954
31
-50.2425179932261
12
905.203292118631
22
294.118378704212
32
125.30514453125
13
940.068988725
23
148.892300645662
33
125.30514453125
0
3DFACE
5
B153
100
AcDbEntity
8
SHELLS
100
AcDbFace
10
911.763001337409
20
296.249757430954
30
-50.2425179932261
11
854.194013484979
21
435.233588676384
31
-50.2425179932261
12
848.048486262813
22
432.10228615613
32
125.30514453125
13
905.203292118631
23
294.118378704212
33
125.30514453125
0
3DFACE
5
B154
100
AcDbEntity
8
SHELLS
100
AcDbFace
10
854.194013484979
20
435.233588676384
30
-50.2425179932261
11
775.59193411315
21
563.500524511135
31
-50.2425179932261
12
770.011912163641
22
559.446401257614
32
125.30514453125
13
848.048486262813
23
432.10228615613
33
125.30514453125
0
3DFACE
5
B155
100
AcDbEntity
8
SHELLS
100
AcDbFace
10
775.59193411315
20
563.500524511135
30
-50.2425179932261
11
677.892207281401
21
677.892207281401
31
-50.2425179932261
12
673.015089263979
22
673.015089263979
32
125.30514453125
13
770.011912163641
23
559.446401257614
33
125.30514453125
0
3DFACE
5
B156
100
AcDbEntity
8
SHELLS
100
AcDbFace
10
677.892207281401
20
677.892207281401
30
-50.2425179932261
11
563.500524511135
21
775.59193411315
31
-50.2425179932261
12
559.446401257614
22
770.011912163641
32
125.30514453125
13
673.015089263979
23
673.015089263979
33
125.30514453125
0
3DFACE
5
B157
100
AcDbEntity
8
SHELLS
100
AcDbFace
10
563.500524511135
20
775.59193411315
30
-50.2425179932261
11
435.233588676384
21
854.194013484979
31
-50.2425179932261
12
432.10228615613
22
848.048486262813
32
125.30514453125
13
559.446401257614
23
770.011912163641
33
125.30514453125
0
3DFACE
5
B158
100
AcDbEntity
8
SHELLS
100
AcDbFace
10
435.233588676384
20
854.194013484979
30
-50.2425179932261
11
296.249757430954
21
911.763001337409
31
-50.2425179932261
12
294.118378704212
22
905.203292118631
32
125.30514453125
13
432.10228615613
23
848.048486262813
33
125.30514453125
0
3DFACE
5
B159
100
AcDbEntity
8
SHELLS
100
AcDbFace
10
296.249757430954
20
911.763001337409
30
-50.2425179932261
11
149.971273960998
21
946.881358128998
31
-50.2425179932261
12
148.892300645662
22
940.068988725
32
125.30514453125
13
294.118378704212
23
905.203292118631
33
125.30514453125
0
3DFACE
5
B160
100
AcDbEntity
8
SHELLS
100
AcDbFace
10
149.971273960998
20
946.881358128998
30
-50.2425179932261
11
5.87005475220065E-14
21
958.684353364391
31
-50.2425179932261
12
5.82782244817399E-14
22
951.787066918858
32
125.30514453125
13
148.892300645662
23
940.068988725
33
125.30514453125
0
3DFACE
5
B161
100
AcDbEntity
8
SHELLS
100
AcDbFace
10
5.87005475220065E-14
20
958.684353364391
30
-50.2425179932261
11
-149.971273960998
21
946.881358128998
31
-50.2425179932261
12
-148.892300645662
22
940.068988725
32
125.30514453125
13
5.82782244817399E-14
23
951.787066918858
33
125.30514453125
0
3DFACE
5
B162
100
AcDbEntity
8
SHELLS
100
AcDbFace
10
-149.971273960998
20
946.881358128998
30
-50.2425179932261
11
-296.249757430954
21
911.76300133741
31
-50.2425179932261
12
-294.118378704212
22
905.203292118631
32
125.30514453125
13
-148.892300645662
23
940.068988725
33
125.30514453125
0
3DFACE
5
B163
100
AcDbEntity
8
SHELLS
100
AcDbFace
10
-296.249757430954
20
911.76300133741
30
-50.2425179932261
11
-435.233588676384
21
854.194013484979
31
-50.2425179932261
12
-432.10228615613
22
848.048486262813
32
125.30514453125
13
-294.118378704212
23
905.203292118631
33
125.30514453125
0
3DFACE
5
B164
100
AcDbEntity
8
SHELLS
100
AcDbFace
10
-435.233588676384
20
854.194013484979
30
-50.2425179932261
11
-563.500524511135
21
775.59193411315
31
-50.2425179932261
12
-559.446401257614
22
770.011912163641
32
125.30514453125
13
-432.10228615613
23
848.048486262813
33
125.30514453125
0
3DFACE
5
B165
100
AcDbEntity
8
SHELLS
100
AcDbFace
10
-563.500524511135
20
775.59193411315
30
-50.2425179932261
11
-677.892207281401
21
677.892207281401
31
-50.2425179932261
12
-673.015089263979
22
673.015089263979
32
125.30514453125
13
-559.446401257614
23
770.011912163641
33
125.30514453125
0
3DFACE
5
B166
100
AcDbEntity
8
SHELLS
100
AcDbFace
10
-677.892207281401
20
677.892207281401
30
-50.2425179932261
11
-775.591934113149
21
563.500524511135
31
-50.2425179932261
12
-770.011912163641
22
559.446401257614
32
125.30514453125
13
-673.015089263979
23
673.015089263979
33
125.30514453125
0
3DFACE
5
B167
100
AcDbEntity
8
SHELLS
100
AcDbFace
10
-775.591934113149
20
563.500524511135
30
-50.2425179932261
11
-854.194013484979
21
435.233588676384
31
-50.2425179932261
12
-848.048486262813
22
432.10228615613
32
125.30514453125
13
-770.011912163641
23
559.446401257614
33
125.30514453125
0
3DFACE
5
B168
100
AcDbEntity
8
SHELLS
100
AcDbFace
10
-854.194013484979
20
435.233588676384
30
-50.2425179932261
11
-911.763001337409
21
296.249757430954
31
-50.2425179932261
12
-905.203292118631
22
294.118378704213
32
125.30514453125
13
-848.048486262813
23
432.10228615613
33
125.30514453125
0
3DFACE
5
B169
100
AcDbEntity
8
SHELLS
100
AcDbFace
10
-911.763001337409
20
296.249757430954
30
-50.2425179932261
11
-946.881358128998
21
149.971273960998
31
-50.2425179932261
12
-940.068988725
22
148.892300645662
32
125.30514453125
13
-905.203292118631
23
294.118378704213
33
125.30514453125
0
3DFACE
5
B170
100
AcDbEntity
8
SHELLS
100
AcDbFace
10
-946.881358128998
20
149.971273960998
30
-50.2425179932261
11
-958.684353364391
21
1.17401095044013E-13
31
-50.2425179932261
12
-951.787066918858
22
1.1655644896348E-13
32
125.30514453125
13
-940.068988725
23
148.892300645662
33
125.30514453125
0
3DFACE
5
B171
100
AcDbEntity
8
SHELLS
100
AcDbFace
10
-958.684353364391
20
1.17401095044013E-13
30
-50.2425179932261
11
-946.881358128998
21
-149.971273960998
31
-50.2425179932261
12
-940.068988725
22
-148.892300645662
32
125.30514453125
13
-951.787066918858
23
1.1655644896348E-13
33
125.30514453125
0
3DFACE
5
B172
100
AcDbEntity
8
SHELLS
100
AcDbFace
10
-946.881358128998
20
-149.971273960998
30
-50.2425179932261
11
-911.76300133741
21
-296.249757430954
31
-50.2425179932261
12
-905.203292118631
22
-294.118378704212
32
125.30514453125
13
-940.068988725
23
-148.892300645662
33
125.30514453125
0
3DFACE
5
B173
100
AcDbEntity
8
SHELLS
100
AcDbFace
10
-911.76300133741
20
-296.249757430954
30
-50.2425179932261
11
-854.194013484979
21
-435.233588676384
31
-50.2425179932261
12
-848.048486262813
22
-432.10228615613
32
125.30514453125
13
-905.203292118631
23
-294.118378704212
33
125.30514453125
0
3DFACE
5
B174
100
AcDbEntity
8
SHELLS
100
AcDbFace
10
-854.194013484979
20
-435.233588676384
30
-50.2425179932261
11
-775.59193411315
21
-563.500524511135
31
-50.2425179932261
12
-770.011912163642
22
-559.446401257614
32
125.30514453125
13
-848.048486262813
23
-432.10228615613
33
125.30514453125
0
3DFACE
5
B175
100
AcDbEntity
8
SHELLS
100
AcDbFace
10
-775.59193411315
20
-563.500524511135
30
-50.2425179932261
11
-677.892207281401
21
-677.892207281401
31
-50.2425179932261
12
-673.015089263979
22
-673.015089263979
32
125.30514453125
13
-770.011912163642
23
-559.446401257614
33
125.30514453125
0
3DFACE
5
B176
100
AcDbEntity
8
SHELLS
100
AcDbFace
10
-677.892207281401
20
-677.892207281401
30
-50.2425179932261
11
-563.500524511135
21
-775.591934113149
31
-50.2425179932261
12
-559.446401257614
22
-770.011912163641
32
125.30514453125
13
-673.015089263979
23
-673.015089263979
33
125.30514453125
0
3DFACE
5
B177
100
AcDbEntity
8
SHELLS
100
AcDbFace
10
-563.500524511135
20
-775.591934113149
30
-50.2425179932261
11
-435.233588676384
21
-854.194013484979
31
-50.2425179932261
12
-432.10228615613
22
-848.048486262813
32
125.30514453125
13
-559.446401257614
23
-770.011912163641
33
125.30514453125
0
3DFACE
5
B178
100
AcDbEntity
8
SHELLS
100
AcDbFace
10
-435.233588676384
20
-854.194013484979
30
-50.2425179932261
11
-296.249757430954
21
-911.763001337409
31
-50.2425179932261
12
-294.118378704213
22
-905.203292118631
32
125.30514453125
13
-432.10228615613
23
-848.048486262813
33
125.30514453125
0
3DFACE
5
B179
100
AcDbEntity
8
SHELLS
100
AcDbFace
10
-296.249757430954
20
-911.763001337409
30
-50.2425179932261
11
-149.971273960998
21
-946.881358128998
31
-50.2425179932261
12
-148.892300645662
22
-940.068988725
32
125.30514453125
13
-294.118378704213
23
-905.203292118631
33
125.30514453125
0
3DFACE
5
B180
100
AcDbEntity
8
SHELLS
100
AcDbFace
10
-149.971273960998
20
-946.881358128998
30
-50.2425179932261
11
-1.7610164256602E-13
21
-958.684353364391
31
-50.2425179932261
12
-1.7483467344522E-13
22
-951.787066918858
32
125.30514453125
13
-148.892300645662
23
-940.068988725
33
125.30514453125
0
3DFACE
5
B181
100
AcDbEntity
8
SHELLS
100
AcDbFace
10
933.47512358177
20
0
30
-224.107549301669
11
921.982495797319
21
146.027681585878
31
-224.107549301669
12
946.881358128998
22
149.971273960998
32
-50.2425179932261
13
958.684353364391
23
0
33
-50.2425179932261
0
3DFACE
5
B182
100
AcDbEntity
8
SHELLS
100
AcDbFace
10
921.982495797319
20
146.027681585878
30
-224.107549301669
11
887.787599081866
21
288.459677013021
31
-224.107549301669
12
911.763001337409
22
296.249757430954
32
-50.2425179932261
13
946.881358128998
23
149.971273960998
33
-50.2425179932261
0
3DFACE
5
B183
100
AcDbEntity
8
SHELLS
100
AcDbFace
10
887.787599081866
20
288.459677013021
30
-224.107549301669
11
831.7324252789
21
423.788837849323
31
-224.107549301669
12
854.194013484979
22
435.233588676384
32
-50.2425179932261
13
911.763001337409
23
296.249757430954
33
-50.2425179932261
0
3DFACE
5
B184
100
AcDbEntity
8
SHELLS
100
AcDbFace
10
831.7324252789
20
423.788837849323
30
-224.107549301669
11
755.197238803906
21
548.682911023258
31
-224.107549301669
12
775.59193411315
22
563.500524511135
32
-50.2425179932261
13
854.194013484979
23
435.233588676384
33
-50.2425179932261
0
3DFACE
5
B185
100
AcDbEntity
8
SHELLS
100
AcDbFace
10
755.197238803906
20
548.682911023258
30
-224.107549301669
11
660.06658995362
21
660.06658995362
31
-224.107549301669
12
677.892207281401
22
677.892207281401
32
-50.2425179932261
13
775.59193411315
23
563.500524511135
33
-50.2425179932261
0
3DFACE
5
B186
100
AcDbEntity
8
SHELLS
100
AcDbFace
10
660.06658995362
20
660.06658995362
30
-224.107549301669
11
548.682911023258
21
755.197238803906
31
-224.107549301669
12
563.500524511135
22
775.59193411315
32
-50.2425179932261
13
677.892207281401
23
677.892207281401
33
-50.2425179932261
0
3DFACE
5
B187
100
AcDbEntity
8
SHELLS
100
AcDbFace
10
548.682911023258
20
755.197238803906
30
-224.107549301669
11
423.788837849323
21
831.7324252789
31
-224.107549301669
12
435.233588676384
22
854.194013484979
32
-50.2425179932261
13
563.500524511135
23
775.59193411315
33
-50.2425179932261
0
3DFACE
5
B188
100
AcDbEntity
8
SHELLS
100
AcDbFace
10
423.788837849323
20
831.7324252789
30
-224.107549301669
11
288.459677013021
21
887.787599081866
31
-224.107549301669
12
296.249757430954
22
911.763001337409
32
-50.2425179932261
13
435.233588676384
23
854.194013484979
33
-50.2425179932261
0
3DFACE
5
B189
100
AcDbEntity
8
SHELLS
100
AcDbFace
10
288.459677013021
20
887.787599081866
30
-224.107549301669
11
146.027681585878
21
921.982495797319
31
-224.107549301669
12
149.971273960998
22
946.881358128998
32
-50.2425179932261
13
296.249757430954
23
911.763001337409
33
-50.2425179932261
0
3DFACE
5
B190
100
AcDbEntity
8
SHELLS
100
AcDbFace
10
146.027681585878
20
921.982495797319
30
-224.107549301669
11
5.71569783736682E-14
21
933.47512358177
31
-224.107549301669
12
5.87005475220065E-14
22
958.684353364391
32
-50.2425179932261
13
149.971273960998
23
946.881358128998
33
-50.2425179932261
0
3DFACE
5
B191
100
AcDbEntity
8
SHELLS
100
AcDbFace
10
5.71569783736682E-14
20
933.47512358177
30
-224.107549301669
11
-146.027681585877
21
921.982495797319
31
-224.107549301669
12
-149.971273960998
22
946.881358128998
32
-50.2425179932261
13
5.87005475220065E-14
23
958.684353364391
33
-50.2425179932261
0
3DFACE
5
B192
100
AcDbEntity
8
SHELLS
100
AcDbFace
10
-146.027681585877
20
921.982495797319
30
-224.107549301669
11
-288.459677013021
21
887.787599081866
31
-224.107549301669
12
-296.249757430954
22
911.76300133741
32
-50.2425179932261
13
-149.971273960998
23
946.881358128998
33
-50.2425179932261
0
3DFACE
5
B193
100
AcDbEntity
8
SHELLS
100
AcDbFace
10
-288.459677013021
20
887.787599081866
30
-224.107549301669
11
-423.788837849323
21
831.7324252789
31
-224.107549301669
12
-435.233588676384
22
854.194013484979
32
-50.2425179932261
13
-296.249757430954
23
911.76300133741
33
-50.2425179932261
0
3DFACE
5
B194
100
AcDbEntity
8
SHELLS
100
AcDbFace
10
-423.788837849323
20
831.7324252789
30
-224.107549301669
11
-548.682911023258
21
755.197238803906
31
-224.107549301669
12
-563.500524511135
22
775.59193411315
32
-50.2425179932261
13
-435.233588676384
23
854.194013484979
33
-50.2425179932261
0
3DFACE
5
B195
100
AcDbEntity
8
SHELLS
100
AcDbFace
10
-548.682911023258
20
755.197238803906
30
-224.107549301669
11
-660.06658995362
21
660.06658995362
31
-224.107549301669
12
-677.892207281401
22
677.892207281401
32
-50.2425179932261
13
-563.500524511135
23
775.59193411315
33
-50.2425179932261
0
3DFACE
5
B196
100
AcDbEntity
8
SHELLS
100
AcDbFace
10
-660.06658995362
20
660.06658995362
30
-224.107549301669
11
-755.197238803906
21
548.682911023258
31
-224.107549301669
12
-775.591934113149
22
563.500524511135
32
-50.2425179932261
13
-677.892207281401
23
677.892207281401
33
-50.2425179932261
0
3DFACE
5
B197
100
AcDbEntity
8
SHELLS
100
AcDbFace
10
-755.197238803906
20
548.682911023258
30
-224.107549301669
11
-831.7324252789
21
423.788837849323
31
-224.107549301669
12
-854.194013484979
22
435.233588676384
32
-50.2425179932261
13
-775.591934113149
23
563.500524511135
33
-50.2425179932261
0
3DFACE
5
B198
100
AcDbEntity
8
SHELLS
100
AcDbFace
10
-831.7324252789
20
423.788837849323
30
-224.107549301669
11
-887.787599081866
21
288.459677013021
31
-224.107549301669
12
-911.763001337409
22
296.249757430954
32
-50.2425179932261
13
-854.194013484979
23
435.233588676384
33
-50.2425179932261
0
3DFACE
5
B199
100
AcDbEntity
8
SHELLS
100
AcDbFace
10
-887.787599081866
20
288.459677013021
30
-224.107549301669
11
-921.982495797319
21
146.027681585878
31
-224.107549301669
12
-946.881358128998
22
149.971273960998
32
-50.2425179932261
13
-911.763001337409
23
296.249757430954
33
-50.2425179932261
0
3DFACE
5
B200
100
AcDbEntity
8
SHELLS
100
AcDbFace
10
-921.982495797319
20
146.027681585878
30
-224.107549301669
11
-933.47512358177
21
1.14313956747336E-13
31
-224.107549301669
12
-958.684353364391
22
1.17401095044013E-13
32
-50.2425179932261
13
-946.881358128998
23
149.971273960998
33
-50.2425179932261
0
3DFACE
5
B201
100
AcDbEntity
8
SHELLS
100
AcDbFace
10
-933.47512358177
20
1.14313956747336E-13
30
-224.107549301669
11
-921.982495797319
21
-146.027681585877
31
-224.107549301669
12
-946.881358128998
22
-149.971273960998
32
-50.2425179932261
13
-958.684353364391
23
1.17401095044013E-13
33
-50.2425179932261
0
3DFACE
5
B202
100
AcDbEntity
8
SHELLS
100
AcDbFace
10
-921.982495797319
20
-146.027681585877
30
-224.107549301669
11
-887.787599081866
21
-288.459677013021
31
-224.107549301669
12
-911.76300133741
22
-296.249757430954
32
-50.2425179932261
13
-946.881358128998
23
-149.971273960998
33
-50.2425179932261
0
3DFACE
5
B203
100
AcDbEntity
8
SHELLS
100
AcDbFace
10
-887.787599081866
20
-288.459677013021
30
-224.107549301669
11
-831.7324252789
21
-423.788837849323
31
-224.107549301669
12
-854.194013484979
22
-435.233588676384
32
-50.2425179932261
13
-911.76300133741
23
-296.249757430954
33
-50.2425179932261
0
3DFACE
5
B204
100
AcDbEntity
8
SHELLS
100
AcDbFace
10
-831.7324252789
20
-423.788837849323
30
-224.107549301669
11
-755.197238803906
21
-548.682911023258
31
-224.107549301669
12
-775.59193411315
22
-563.500524511135
32
-50.2425179932261
13
-854.194013484979
23
-435.233588676384
33
-50.2425179932261
0
3DFACE
5
B205
100
AcDbEntity
8
SHELLS
100
AcDbFace
10
-755.197238803906
20
-548.682911023258
30
-224.107549301669
11
-660.06658995362
21
-660.06658995362
31
-224.107549301669
12
-677.892207281401
22
-677.892207281401
32
-50.2425179932261
13
-775.59193411315
23
-563.500524511135
33
-50.2425179932261
0
3DFACE
5
B206
100
AcDbEntity
8
SHELLS
100
AcDbFace
10
-660.06658995362
20
-660.06658995362
30
-224.107549301669
11
-548.682911023258
21
-755.197238803906
31
-224.107549301669
12
-563.500524511135
22
-775.591934113149
32
-50.2425179932261
13
-677.892207281401
23
-677.892207281401
33
-50.2425179932261
0
3DFACE
5
B207
100
AcDbEntity
8
SHELLS
100
AcDbFace
10
-548.682911023258
20
-755.197238803906
30
-224.107549301669
11
-423.788837849323
21
-831.7324252789
31
-224.107549301669
12
-435.233588676384
22
-854.194013484979
32
-50.2425179932261
13
-563.500524511135
23
-775.591934113149
33
-50.2425179932261
0
3DFACE
5
B208
100
AcDbEntity
8
SHELLS
100
AcDbFace
10
-423.788837849323
20
-831.7324252789
30
-224.107549301669
11
-288.459677013021
21
-887.787599081866
31
-224.107549301669
12
-296.249757430954
22
-911.763001337409
32
-50.2425179932261
13
-435.233588676384
23
-854.194013484979
33
-50.2425179932261
0
3DFACE
5
B209
100
AcDbEntity
8
SHELLS
100
AcDbFace
10
-288.459677013021
20
-887.787599081866
30
-224.107549301669
11
-146.027681585878
21
-921.982495797319
31
-224.107549301669
12
-149.971273960998
22
-946.881358128998
32
-50.2425179932261
13
-296.249757430954
23
-911.763001337409
33
-50.2425179932261
0
3DFACE
5
B210
100
AcDbEntity
8
SHELLS
100
AcDbFace
10
-146.027681585878
20
-921.982495797319
30
-224.107549301669
11
-1.71470935121005E-13
21
-933.47512358177
31
-224.107549301669
12
-1.7610164256602E-13
22
-958.684353364391
32
-50.2425179932261
13
-149.971273960998
23
-946.881358128998
33
-50.2425179932261
0
3DFACE
5
B211
100
AcDbEntity
8
SHELLS
100
AcDbFace
10
877.003639336897
20
0
30
-390.467177352768
11
866.206269232556
21
137.193595158003
31
-390.467177352768
12
921.982495797319
22
146.027681585878
32
-224.107549301669
13
933.47512358177
23
0
33
-224.107549301669
0
3DFACE
5
B212
100
AcDbEntity
8
SHELLS
100
AcDbFace
10
866.206269232556
20
137.193595158003
30
-390.467177352768
11
834.08002600592
21
271.009028683778
31
-390.467177352768
12
887.787599081866
22
288.459677013021
32
-224.107549301669
13
921.982495797319
23
146.027681585878
33
-224.107549301669
0
3DFACE
5
B213
100
AcDbEntity
8
SHELLS
100
AcDbFace
10
834.08002600592
20
271.009028683778
30
-390.467177352768
11
781.415964386118
21
398.151320495959
31
-390.467177352768
12
831.7324252789
22
423.788837849323
32
-224.107549301669
13
887.787599081866
23
288.459677013021
33
-224.107549301669
0
3DFACE
5
B214
100
AcDbEntity
8
SHELLS
100
AcDbFace
10
781.415964386118
20
398.151320495959
30
-390.467177352768
11
709.510848352227
21
515.489805409055
31
-390.467177352768
12
755.197238803906
22
548.682911023258
32
-224.107549301669
13
831.7324252789
23
423.788837849323
33
-224.107549301669
0
3DFACE
5
B215
100
AcDbEntity
8
SHELLS
100
AcDbFace
10
709.510848352227
20
515.489805409055
30
-390.467177352768
11
620.135220500401
21
620.135220500401
31
-390.467177352768
12
660.06658995362
22
660.06658995362
32
-224.107549301669
13
755.197238803906
23
548.682911023258
33
-224.107549301669
0
3DFACE
5
B216
100
AcDbEntity
8
SHELLS
100
AcDbFace
10
620.135220500401
20
620.135220500401
30
-390.467177352768
11
515.489805409055
21
709.510848352227
31
-390.467177352768
12
548.682911023258
22
755.197238803906
32
-224.107549301669
13
660.06658995362
23
660.06658995362
33
-224.107549301669
0
3DFACE
5
B217
100
AcDbEntity
8
SHELLS
100
AcDbFace
10
515.489805409055
20
709.510848352227
30
-390.467177352768
11
398.151320495959
21
781.415964386117
31
-390.467177352768
12
423.788837849323
22
831.7324252789
32
-224.107549301669
13
548.682911023258
23
755.197238803906
33
-224.107549301669
0
3DFACE
5
B218
100
AcDbEntity
8
SHELLS
100
AcDbFace
10
398.151320495959
20
781.415964386117
30
-390.467177352768
11
271.009028683778
21
834.08002600592
31
-390.467177352768
12
288.459677013021
22
887.787599081866
32
-224.107549301669
13
423.788837849323
23
831.7324252789
33
-224.107549301669
0
3DFACE
5
B219
100
AcDbEntity
8
SHELLS
100
AcDbFace
10
271.009028683778
20
834.08002600592
30
-390.467177352768
11
137.193595158003
21
866.206269232556
31
-390.467177352768
12
146.027681585878
22
921.982495797319
32
-224.107549301669
13
288.459677013021
23
887.787599081866
33
-224.107549301669
0
3DFACE
5
B220
100
AcDbEntity
8
SHELLS
100
AcDbFace
10
137.193595158003
20
866.206269232556
30
-390.467177352768
11
5.36992114528656E-14
21
877.003639336897
31
-390.467177352768
12
5.71569783736682E-14
22
933.47512358177
32
-224.107549301669
13
146.027681585878
23
921.982495797319
33
-224.107549301669
0
3DFACE
5
B221
100
AcDbEntity
8
SHELLS
100
AcDbFace
10
5.36992114528656E-14
20
877.003639336897
30
-390.467177352768
11
-137.193595158003
21
866.206269232556
31
-390.467177352768
12
-146.027681585877
22
921.982495797319
32
-224.107549301669
13
5.71569783736682E-14
23
933.47512358177
33
-224.107549301669
0
3DFACE
5
B222
100
AcDbEntity
8
SHELLS
100
AcDbFace
10
-137.193595158003
20
866.206269232556
30
-390.467177352768
11
-271.009028683778
21
834.080026005921
31
-390.467177352768
12
-288.459677013021
22
887.787599081866
32
-224.107549301669
13
-146.027681585877
23
921.982495797319
33
-224.107549301669
0
3DFACE
5
B223
100
AcDbEntity
8
SHELLS
100
AcDbFace
10
-271.009028683778
20
834.080026005921
30
-390.467177352768
11
-398.151320495959
21
781.415964386118
31
-390.467177352768
12
-423.788837849323
22
831.7324252789
32
-224.107549301669
13
-288.459677013021
23
887.787599081866
33
-224.107549301669
0
3DFACE
5
B224
100
AcDbEntity
8
SHELLS
100
AcDbFace
10
-398.151320495959
20
781.415964386118
30
-390.467177352768
11
-515.489805409055
21
709.510848352227
31
-390.467177352768
12
-548.682911023258
22
755.197238803906
32
-224.107549301669
13
-423.788837849323
23
831.7324252789
33
-224.107549301669
0
3DFACE
5
B225
100
AcDbEntity
8
SHELLS
100
AcDbFace
10
-515.489805409055
20
709.510848352227
30
-390.467177352768
11
-620.135220500401
21
620.135220500401
31
-390.467177352768
12
-660.06658995362
22
660.06658995362
32
-224.107549301669
13
-548.682911023258
23
755.197238803906
33
-224.107549301669
0
3DFACE
5
B226
100
AcDbEntity
8
SHELLS
100
AcDbFace
10
-620.135220500401
20
620.135220500401
30
-390.467177352768
11
-709.510848352227
21
515.489805409055
31
-390.467177352768
12
-755.197238803906
22
548.682911023258
32
-224.107549301669
13
-660.06658995362
23
660.06658995362
33
-224.107549301669
0
3DFACE
5
B227
100
AcDbEntity
8
SHELLS
100
AcDbFace
10
-709.510848352227
20
515.489805409055
30
-390.467177352768
11
-781.415964386117
21
398.151320495959
31
-390.467177352768
12
-831.7324252789
22
423.788837849323
32
-224.107549301669
13
-755.197238803906
23
548.682911023258
33
-224.107549301669
0
3DFACE
5
B228
100
AcDbEntity
8
SHELLS
100
AcDbFace
10
-781.415964386117
20
398.151320495959
30
-390.467177352768
11
-834.08002600592
21
271.009028683778
31
-390.467177352768
12
-887.787599081866
22
288.459677013021
32
-224.107549301669
13
-831.7324252789
23
423.788837849323
33
-224.107549301669
0
3DFACE
5
B229
100
AcDbEntity
8
SHELLS
100
AcDbFace
10
-834.08002600592
20
271.009028683778
30
-390.467177352768
11
-866.206269232556
21
137.193595158003
31
-390.467177352768
12
-921.982495797319
22
146.027681585878
32
-224.107549301669
13
-887.787599081866
23
288.459677013021
33
-224.107549301669
0
3DFACE
5
B230
100
AcDbEntity
8
SHELLS
100
AcDbFace
10
-866.206269232556
20
137.193595158003
30
-390.467177352768
11
-877.003639336897
21
1.07398422905731E-13
31
-390.467177352768
12
-933.47512358177
22
1.14313956747336E-13
32
-224.107549301669
13
-921.982495797319
23
146.027681585878
33
-224.107549301669
0
3DFACE
5
B231
100
AcDbEntity
8
SHELLS
100
AcDbFace
10
-877.003639336897
20
1.07398422905731E-13
30
-390.467177352768
11
-866.206269232556
21
-137.193595158003
31
-390.467177352768
12
-921.982495797319
22
-146.027681585877
32
-224.107549301669
13
-933.47512358177
23
1.14313956747336E-13
33
-224.107549301669
0
3DFACE
5
B232
100
AcDbEntity
8
SHELLS
100
AcDbFace
10
-866.206269232556
20
-137.193595158003
30
-390.467177352768
11
-834.080026005921
21
-271.009028683778
31
-390.467177352768
12
-887.787599081866
22
-288.459677013021
32
-224.107549301669
13
-921.982495797319
23
-146.027681585877
33
-224.107549301669
0
3DFACE
5
B233
100
AcDbEntity
8
SHELLS
100
AcDbFace
10
-834.080026005921
20
-271.009028683778
30
-390.467177352768
11
-781.415964386118
21
-398.151320495959
31
-390.467177352768
12
-831.7324252789
22
-423.788837849323
32
-224.107549301669
13
-887.787599081866
23
-288.459677013021
33
-224.107549301669
0
3DFACE
5
B234
100
AcDbEntity
8
SHELLS
100
AcDbFace
10
-781.415964386118
20
-398.151320495959
30
-390.467177352768
11
-709.510848352227
21
-515.489805409055
31
-390.467177352768
12
-755.197238803906
22
-548.682911023258
32
-224.107549301669
13
-831.7324252789
23
-423.788837849323
33
-224.107549301669
0
3DFACE
5
B235
100
AcDbEntity
8
SHELLS
100
AcDbFace
10
-709.510848352227
20
-515.489805409055
30
-390.467177352768
11
-620.135220500401
21
-620.135220500401
31
-390.467177352768
12
-660.06658995362
22
-660.06658995362
32
-224.107549301669
13
-755.197238803906
23
-548.682911023258
33
-224.107549301669
0
3DFACE
5
B236
100
AcDbEntity
8
SHELLS
100
AcDbFace
10
-620.135220500401
20
-620.135220500401
30
-390.467177352768
11
-515.489805409055
21
-709.510848352227
31
-390.467177352768
12
-548.682911023258
22
-755.197238803906
32
-224.107549301669
13
-660.06658995362
23
-660.06658995362
33
-224.107549301669
0
3DFACE
5
B237
100
AcDbEntity
8
SHELLS
100
AcDbFace
10
-515.489805409055
20
-709.510848352227
30
-390.467177352768
11
-398.151320495959
21
-781.415964386117
31
-390.467177352768
12
-423.788837849323
22
-831.7324252789
32
-224.107549301669
13
-548.682911023258
23
-755.197238803906
33
-224.107549301669
0
3DFACE
5
B238
100
AcDbEntity
8
SHELLS
100
AcDbFace
10
-398.151320495959
20
-781.415964386117
30
-390.467177352768
11
-271.009028683778
21
-834.08002600592
31
-390.467177352768
12
-288.459677013021
22
-887.787599081866
32
-224.107549301669
13
-423.788837849323
23
-831.7324252789
33
-224.107549301669
0
3DFACE
5
B239
100
AcDbEntity
8
SHELLS
100
AcDbFace
10
-271.009028683778
20
-834.08002600592
30
-390.467177352768
11
-137.193595158003
21
-866.206269232556
31
-390.467177352768
12
-146.027681585878
22
-921.982495797319
32
-224.107549301669
13
-288.459677013021
23
-887.787599081866
33
-224.107549301669
0
3DFACE
5
B240
100
AcDbEntity
8
SHELLS
100
AcDbFace
10
-137.193595158003
20
-866.206269232556
30
-390.467177352768
11
-1.61097634358597E-13
21
-877.003639336897
31
-390.467177352768
12
-1.71470935121005E-13
22
-933.47512358177
32
-224.107549301669
13
-146.027681585878
23
-921.982495797319
33
-224.107549301669
0
3DFACE
5
B241
100
AcDbEntity
8
SHELLS
100
AcDbFace
10
791.161141077135
20
0
30
-543.749987447839
11
781.420634573831
21
123.76486986502
31
-543.749987447839
12
866.206269232556
22
137.193595158003
32
-390.467177352768
13
877.003639336897
23
0
33
-390.467177352768
0
3DFACE
5
B242
100
AcDbEntity
8
SHELLS
100
AcDbFace
10
781.420634573831
20
123.76486986502
30
-543.749987447839
11
752.438958660919
21
244.48223788191
31
-543.749987447839
12
834.08002600592
22
271.009028683778
32
-390.467177352768
13
866.206269232556
23
137.193595158003
33
-390.467177352768
0
3DFACE
5
B243
100
AcDbEntity
8
SHELLS
100
AcDbFace
10
752.438958660919
20
244.48223788191
30
-543.749987447839
11
704.929738384041
21
359.179641812119
31
-543.749987447839
12
781.415964386118
22
398.151320495959
32
-390.467177352768
13
834.08002600592
23
271.009028683778
33
-390.467177352768
0
3DFACE
5
B244
100
AcDbEntity
8
SHELLS
100
AcDbFace
10
704.929738384041
20
359.179641812119
30
-543.749987447839
11
640.062808420478
21
465.032850912025
31
-543.749987447839
12
709.510848352227
22
515.489805409055
32
-390.467177352768
13
781.415964386118
23
398.151320495959
33
-390.467177352768
0
3DFACE
5
B245
100
AcDbEntity
8
SHELLS
100
AcDbFace
10
640.062808420478
20
465.032850912025
30
-543.749987447839
11
559.435407866929
21
559.435407866929
31
-543.749987447839
12
620.135220500401
22
620.135220500401
32
-390.467177352768
13
709.510848352227
23
515.489805409055
33
-390.467177352768
0
3DFACE
5
B246
100
AcDbEntity
8
SHELLS
100
AcDbFace
10
559.435407866929
20
559.435407866929
30
-543.749987447839
11
465.032850912025
21
640.062808420478
31
-543.749987447839
12
515.489805409055
22
709.510848352227
32
-390.467177352768
13
620.135220500401
23
620.135220500401
33
-390.467177352768
0
3DFACE
5
B247
100
AcDbEntity
8
SHELLS
100
AcDbFace
10
465.032850912025
20
640.062808420478
30
-543.749987447839
11
359.179641812119
21
704.929738384041
31
-543.749987447839
12
398.151320495959
22
781.415964386117
32
-390.467177352768
13
515.489805409055
23
709.510848352227
33
-390.467177352768
0
3DFACE
5
B248
100
AcDbEntity
8
SHELLS
100
AcDbFace
10
359.179641812119
20
704.929738384041
30
-543.749987447839
11
244.48223788191
21
752.438958660919
31
-543.749987447839
12
271.009028683778
22
834.08002600592
32
-390.467177352768
13
398.151320495959
23
781.415964386117
33
-390.467177352768
0
3DFACE
5
B249
100
AcDbEntity
8
SHELLS
100
AcDbFace
10
244.48223788191
20
752.438958660919
30
-543.749987447839
11
123.76486986502
21
781.420634573831
31
-543.749987447839
12
137.193595158003
22
866.206269232556
32
-390.467177352768
13
271.009028683778
23
834.08002600592
33
-390.467177352768
0
3DFACE
5
B250
100
AcDbEntity
8
SHELLS
100
AcDbFace
10
123.76486986502
20
781.420634573831
30
-543.749987447839
11
4.84430480130211E-14
21
791.161141077135
31
-543.749987447839
12
5.36992114528656E-14
22
877.003639336897
32
-390.467177352768
13
137.193595158003
23
866.206269232556
33
-390.467177352768
0
3DFACE
5
B251
100
AcDbEntity
8
SHELLS
100
AcDbFace
10
4.84430480130211E-14
20
791.161141077135
30
-543.749987447839
11
-123.76486986502
21
781.420634573831
31
-543.749987447839
12
-137.193595158003
22
866.206269232556
32
-390.467177352768
13
5.36992114528656E-14
23
877.003639336897
33
-390.467177352768
0
3DFACE
5
B252
100
AcDbEntity
8
SHELLS
100
AcDbFace
10
-123.76486986502
20
781.420634573831
30
-543.749987447839
11
-244.48223788191
21
752.438958660919
31
-543.749987447839
12
-271.009028683778
22
834.080026005921
32
-390.467177352768
13
-137.193595158003
23
866.206269232556
33
-390.467177352768
0
3DFACE
5
B253
100
AcDbEntity
8
SHELLS
100
AcDbFace
10
-244.48223788191
20
752.438958660919
30
-543.749987447839
11
-359.179641812119
21
704.929738384041
31
-543.749987447839
12
-398.151320495959
22
781.415964386118
32
-390.467177352768
13
-271.009028683778
23
834.080026005921
33
-390.467177352768
0
3DFACE
5
B254
100
AcDbEntity
8
SHELLS
100
AcDbFace
10
-359.179641812119
20
704.929738384041
30
-543.749987447839
11
-465.032850912025
21
640.062808420478
31
-543.749987447839
12
-515.489805409055
22
709.510848352227
32
-390.467177352768
13
-398.151320495959
23
781.415964386118
33
-390.467177352768
0
3DFACE
5
B255
100
AcDbEntity
8
SHELLS
100
AcDbFace
10
-465.032850912025
20
640.062808420478
30
-543.749987447839
11
-559.435407866929
21
559.435407866929
31
-543.749987447839
12
-620.135220500401
22
620.135220500401
32
-390.467177352768
13
-515.489805409055
23
709.510848352227
33
-390.467177352768
0
3DFACE
5
B256
100
AcDbEntity
8
SHELLS
100
AcDbFace
10
-559.435407866929
20
559.435407866929
30
-543.749987447839
11
-640.062808420478
21
465.032850912025
31
-543.749987447839
12
-709.510848352227
22
515.489805409055
32
-390.467177352768
13
-620.135220500401
23
620.135220500401
33
-390.467177352768
0
3DFACE
5
B257
100
AcDbEntity
8
SHELLS
100
AcDbFace
10
-640.062808420478
20
465.032850912025
30
-543.749987447839
11
-704.929738384041
21
359.179641812119
31
-543.749987447839
12
-781.415964386117
22
398.151320495959
32
-390.467177352768
13
-709.510848352227
23
515.489805409055
33
-390.467177352768
0
3DFACE
5
B258
100
AcDbEntity
8
SHELLS
100
AcDbFace
10
-704.929738384041
20
359.179641812119
30
-543.749987447839
11
-752.438958660919
21
244.48223788191
31
-543.749987447839
12
-834.08002600592
22
271.009028683778
32
-390.467177352768
13
-781.415964386117
23
398.151320495959
33
-390.467177352768
0
3DFACE
5
B259
100
AcDbEntity
8
SHELLS
100
AcDbFace
10
-752.438958660919
20
244.48223788191
30
-543.749987447839
11
-781.420634573831
21
123.76486986502
31
-543.749987447839
12
-866.206269232556
22
137.193595158003
32
-390.467177352768
13
-834.08002600592
23
271.009028683778
33
-390.467177352768
0
3DFACE
5
B260
100
AcDbEntity
8
SHELLS
100
AcDbFace
10
-781.420634573831
20
123.76486986502
30
-543.749987447839
11
-791.161141077135
21
9.68860960260422E-14
31
-543.749987447839
12
-877.003639336897
22
1.07398422905731E-13
32
-390.467177352768
13
-866.206269232556
23
137.193595158003
33
-390.467177352768
0
3DFACE
5
B261
100
AcDbEntity
8
SHELLS
100
AcDbFace
10
-791.161141077135
20
9.68860960260422E-14
30
-543.749987447839
11
-781.420634573831
21
-123.76486986502
31
-543.749987447839
12
-866.206269232556
22
-137.193595158003
32
-390.467177352768
13
-877.003639336897
23
1.07398422905731E-13
33
-390.467177352768
0
3DFACE
5
B262
100
AcDbEntity
8
SHELLS
100
AcDbFace
10
-781.420634573831
20
-123.76486986502
30
-543.749987447839
11
-752.438958660919
21
-244.48223788191
31
-543.749987447839
12
-834.080026005921
22
-271.009028683778
32
-390.467177352768
13
-866.206269232556
23
-137.193595158003
33
-390.467177352768
0
3DFACE
5
B263
100
AcDbEntity
8
SHELLS
100
AcDbFace
10
-752.438958660919
20
-244.48223788191
30
-543.749987447839
11
-704.929738384041
21
-359.179641812119
31
-543.749987447839
12
-781.415964386118
22
-398.151320495959
32
-390.467177352768
13
-834.080026005921
23
-271.009028683778
33
-390.467177352768
0
3DFACE
5
B264
100
AcDbEntity
8
SHELLS
100
AcDbFace
10
-704.929738384041
20
-359.179641812119
30
-543.749987447839
11
-640.062808420478
21
-465.032850912025
31
-543.749987447839
12
-709.510848352227
22
-515.489805409055
32
-390.467177352768
13
-781.415964386118
23
-398.151320495959
33
-390.467177352768
0
3DFACE
5
B265
100
AcDbEntity
8
SHELLS
100
AcDbFace
10
-640.062808420478
20
-465.032850912025
30
-543.749987447839
11
-559.435407866929
21
-559.435407866929
31
-543.749987447839
12
-620.135220500401
22
-620.135220500401
32
-390.467177352768
13
-709.510848352227
23
-515.489805409055
33
-390.467177352768
0
3DFACE
5
B266
100
AcDbEntity
8
SHELLS
100
AcDbFace
10
-559.435407866929
20
-559.435407866929
30
-543.749987447839
11
-465.032850912025
21
-640.062808420478
31
-543.749987447839
12
-515.489805409055
22
-709.510848352227
32
-390.467177352768
13
-620.135220500401
23
-620.135220500401
33
-390.467177352768
0
3DFACE
5
B267
100
AcDbEntity
8
SHELLS
100
AcDbFace
10
-465.032850912025
20
-640.062808420478
30
-543.749987447839
11
-359.179641812119
21
-704.929738384041
31
-543.749987447839
12
-398.151320495959
22
-781.415964386117
32
-390.467177352768
13
-515.489805409055
23
-709.510848352227
33
-390.467177352768
0
3DFACE
5
B268
100
AcDbEntity
8
SHELLS
100
AcDbFace
10
-359.179641812119
20
-704.929738384041
30
-543.749987447839
11
-244.48223788191
21
-752.438958660919
31
-543.749987447839
12
-271.009028683778
22
-834.08002600592
32
-390.467177352768
13
-398.151320495959
23
-781.415964386117
33
-390.467177352768
0
3DFACE
5
B269
100
AcDbEntity
8
SHELLS
100
AcDbFace
10
-244.48223788191
20
-752.438958660919
30
-543.749987447839
11
-123.76486986502
21
-781.420634573831
31
-543.749987447839
12
-137.193595158003
22
-866.206269232556
32
-390.467177352768
13
-271.009028683778
23
-834.08002600592
33
-390.467177352768
0
3DFACE
5
B270
100
AcDbEntity
8
SHELLS
100
AcDbFace
10
-123.76486986502
20
-781.420634573831
30
-543.749987447839
11
-1.45329144039063E-13
21
-791.161141077135
31
-543.749987447839
12
-1.61097634358597E-13
22
-877.003639336897
32
-390.467177352768
13
-137.193595158003
23
-866.206269232556
33
-390.467177352768
0
3DFACE
5
B271
100
AcDbEntity
8
SHELLS
100
AcDbFace
10
678.822509939086
20
0
30
-678.822509939086
11
670.465078400362
21
106.191236199588
31
-678.822509939086
12
781.420634573831
22
123.76486986502
32
-543.749987447839
13
791.161141077135
23
0
33
-543.749987447839
0
3DFACE
5
B272
100
AcDbEntity
8
SHELLS
100
AcDbFace
10
670.465078400362
20
106.191236199588
30
-678.822509939086
11
645.598571485399
21
209.767691735434
31
-678.822509939086
12
752.438958660919
22
244.48223788191
32
-543.749987447839
13
781.420634573831
23
123.76486986502
33
-543.749987447839
0
3DFACE
5
B273
100
AcDbEntity
8
SHELLS
100
AcDbFace
10
645.598571485399
20
209.767691735434
30
-678.822509939086
11
604.835285121649
21
308.178970521699
31
-678.822509939086
12
704.929738384041
22
359.179641812119
32
-543.749987447839
13
752.438958660919
23
244.48223788191
33
-543.749987447839
0
3DFACE
5
B274
100
AcDbEntity
8
SHELLS
100
AcDbFace
10
604.835285121649
20
308.178970521699
30
-678.822509939086
11
549.178946704977
21
399.001860266355
31
-678.822509939086
12
640.062808420478
22
465.032850912025
32
-543.749987447839
13
704.929738384041
23
359.179641812119
33
-543.749987447839
0
3DFACE
5
B275
100
AcDbEntity
8
SHELLS
100
AcDbFace
10
549.178946704977
20
399.001860266355
30
-678.822509939086
11
480
21
480
31
-678.822509939086
12
559.435407866929
22
559.435407866929
32
-543.749987447839
13
640.062808420478
23
465.032850912025
33
-543.749987447839
0
3DFACE
5
B276
100
AcDbEntity
8
SHELLS
100
AcDbFace
10
480
20
480
30
-678.822509939086
11
399.001860266355
21
549.178946704977
31
-678.822509939086
12
465.032850912025
22
640.062808420478
32
-543.749987447839
13
559.435407866929
23
559.435407866929
33
-543.749987447839
0
3DFACE
5
B277
100
AcDbEntity
8
SHELLS
100
AcDbFace
10
399.001860266355
20
549.178946704977
30
-678.822509939086
11
308.178970521699
21
604.835285121648
31
-678.822509939086
12
359.179641812119
22
704.929738384041
32
-543.749987447839
13
465.032850912025
23
640.062808420478
33
-543.749987447839
0
3DFACE
5
B278
100
AcDbEntity
8
SHELLS
100
AcDbFace
10
308.178970521699
20
604.835285121648
30
-678.822509939086
11
209.767691735434
21
645.598571485399
31
-678.822509939086
12
244.48223788191
22
752.438958660919
32
-543.749987447839
13
359.179641812119
23
704.929738384041
33
-543.749987447839
0
3DFACE
5
B279
100
AcDbEntity
8
SHELLS
100
AcDbFace
10
209.767691735434
20
645.598571485399
30
-678.822509939086
11
106.191236199588
21
670.465078400362
31
-678.822509939086
12
123.76486986502
22
781.420634573831
32
-543.749987447839
13
244.48223788191
23
752.438958660919
33
-543.749987447839
0
3DFACE
5
B280
100
AcDbEntity
8
SHELLS
100
AcDbFace
10
106.191236199588
20
670.465078400362
30
-678.822509939086
11
4.15645179394529E-14
21
678.822509939086
31
-678.822509939086
12
4.84430480130211E-14
22
791.161141077135
32
-543.749987447839
13
123.76486986502
23
781.420634573831
33
-543.749987447839
0
3DFACE
5
B281
100
AcDbEntity
8
SHELLS
100
AcDbFace
10
4.15645179394529E-14
20
678.822509939086
30
-678.822509939086
11
-106.191236199588
21
670.465078400362
31
-678.822509939086
12
-123.76486986502
22
781.420634573831
32
-543.749987447839
13
4.84430480130211E-14
23
791.161141077135
33
-543.749987447839
0
3DFACE
5
B282
100
AcDbEntity
8
SHELLS
100
AcDbFace
10
-106.191236199588
20
670.465078400362
30
-678.822509939086
11
-209.767691735434
21
645.598571485399
31
-678.822509939086
12
-244.48223788191
22
752.438958660919
32
-543.749987447839
13
-123.76486986502
23
781.420634573831
33
-543.749987447839
0
3DFACE
5
B283
100
AcDbEntity
8
SHELLS
100
AcDbFace
10
-209.767691735434
20
645.598571485399
30
-678.822509939086
11
-308.178970521699
21
604.835285121649
31
-678.822509939086
12
-359.179641812119
22
704.929738384041
32
-543.749987447839
13
-244.48223788191
23
752.438958660919
33
-543.749987447839
0
3DFACE
5
B284
100
AcDbEntity
8
SHELLS
100
AcDbFace
10
-308.178970521699
20
604.835285121649
30
-678.822509939086
11
-399.001860266355
21
549.178946704977
31
-678.822509939086
12
-465.032850912025
22
640.062808420478
32
-543.749987447839
13
-359.179641812119
23
704.929738384041
33
-543.749987447839
0
3DFACE
5
B285
100
AcDbEntity
8
SHELLS
100
AcDbFace
10
-399.001860266355
20
549.178946704977
30
-678.822509939086
11
-480
21
480
31
-678.822509939086
12
-559.435407866929
22
559.435407866929
32
-543.749987447839
13
-465.032850912025
23
640.062808420478
33
-543.749987447839
0
3DFACE
5
B286
100
AcDbEntity
8
SHELLS
100
AcDbFace
10
-480
20
480
30
-678.822509939086
11
-549.178946704977
21
399.001860266355
31
-678.822509939086
12
-640.062808420478
22
465.032850912025
32
-543.749987447839
13
-559.435407866929
23
559.435407866929
33
-543.749987447839
0
3DFACE
5
B287
100
AcDbEntity
8
SHELLS
100
AcDbFace
10
-549.178946704977
20
399.001860266355
30
-678.822509939086
11
-604.835285121648
21
308.178970521699
31
-678.822509939086
12
-704.929738384041
22
359.179641812119
32
-543.749987447839
13
-640.062808420478
23
465.032850912025
33
-543.749987447839
0
3DFACE
5
B288
100
AcDbEntity
8
SHELLS
100
AcDbFace
10
-604.835285121648
20
308.178970521699
30
-678.822509939086
11
-645.598571485399
21
209.767691735434
31
-678.822509939086
12
-752.438958660919
22
244.48223788191
32
-543.749987447839
13
-704.929738384041
23
359.179641812119
33
-543.749987447839
0
3DFACE
5
B289
100
AcDbEntity
8
SHELLS
100
AcDbFace
10
-645.598571485399
20
209.767691735434
30
-678.822509939086
11
-670.465078400362
21
106.191236199588
31
-678.822509939086
12
-781.420634573831
22
123.76486986502
32
-543.749987447839
13
-752.438958660919
23
244.48223788191
33
-543.749987447839
0
3DFACE
5
B290
100
AcDbEntity
8
SHELLS
100
AcDbFace
10
-670.465078400362
20
106.191236199588
30
-678.822509939086
11
-678.822509939086
21
8.31290358789058E-14
31
-678.822509939086
12
-791.161141077135
22
9.68860960260422E-14
32
-543.749987447839
13
-781.420634573831
23
123.76486986502
33
-543.749987447839
0
3DFACE
5
B291
100
AcDbEntity
8
SHELLS
100
AcDbFace
10
-678.822509939086
20
8.31290358789058E-14
30
-678.822509939086
11
-670.465078400362
21
-106.191236199588
31
-678.822509939086
12
-781.420634573831
22
-123.76486986502
32
-543.749987447839
13
-791.161141077135
23
9.68860960260422E-14
33
-543.749987447839
0
3DFACE
5
B292
100
AcDbEntity
8
SHELLS
100
AcDbFace
10
-670.465078400362
20
-106.191236199588
30
-678.822509939086
11
-645.598571485399
21
-209.767691735434
31
-678.822509939086
12
-752.438958660919
22
-244.48223788191
32
-543.749987447839
13
-781.420634573831
23
-123.76486986502
33
-543.749987447839
0
3DFACE
5
B293
100
AcDbEntity
8
SHELLS
100
AcDbFace
10
-645.598571485399
20
-209.767691735434
30
-678.822509939086
11
-604.835285121649
21
-308.178970521699
31
-678.822509939086
12
-704.929738384041
22
-359.179641812119
32
-543.749987447839
13
-752.438958660919
23
-244.48223788191
33
-543.749987447839
0
3DFACE
5
B294
100
AcDbEntity
8
SHELLS
100
AcDbFace
10
-604.835285121649
20
-308.178970521699
30
-678.822509939086
11
-549.178946704977
21
-399.001860266355
31
-678.822509939086
12
-640.062808420478
22
-465.032850912025
32
-543.749987447839
13
-704.929738384041
23
-359.179641812119
33
-543.749987447839
0
3DFACE
5
B295
100
AcDbEntity
8
SHELLS
100
AcDbFace
10
-549.178946704977
20
-399.001860266355
30
-678.822509939086
11
-480
21
-480
31
-678.822509939086
12
-559.435407866929
22
-559.435407866929
32
-543.749987447839
13
-640.062808420478
23
-465.032850912025
33
-543.749987447839
0
3DFACE
5
B296
100
AcDbEntity
8
SHELLS
100
AcDbFace
10
-480
20
-480
30
-678.822509939086
11
-399.001860266355
21
-549.178946704977
31
-678.822509939086
12
-465.032850912025
22
-640.062808420478
32
-543.749987447839
13
-559.435407866929
23
-559.435407866929
33
-543.749987447839
0
3DFACE
5
B297
100
AcDbEntity
8
SHELLS
100
AcDbFace
10
-399.001860266355
20
-549.178946704977
30
-678.822509939086
11
-308.178970521699
21
-604.835285121648
31
-678.822509939086
12
-359.179641812119
22
-704.929738384041
32
-543.749987447839
13
-465.032850912025
23
-640.062808420478
33
-543.749987447839
0
3DFACE
5
B298
100
AcDbEntity
8
SHELLS
100
AcDbFace
10
-308.178970521699
20
-604.835285121648
30
-678.822509939086
11
-209.767691735434
21
-645.598571485399
31
-678.822509939086
12
-244.48223788191
22
-752.438958660919
32
-543.749987447839
13
-359.179641812119
23
-704.929738384041
33
-543.749987447839
0
3DFACE
5
B299
100
AcDbEntity
8
SHELLS
100
AcDbFace
10
-209.767691735434
20
-645.598571485399
30
-678.822509939086
11
-106.191236199588
21
-670.465078400362
31
-678.822509939086
12
-123.76486986502
22
-781.420634573831
32
-543.749987447839
13
-244.48223788191
23
-752.438958660919
33
-543.749987447839
0
3DFACE
5
B300
100
AcDbEntity
8
SHELLS
100
AcDbFace
10
-106.191236199588
20
-670.465078400362
30
-678.822509939086
11
-1.24693553818359E-13
21
-678.822509939086
31
-678.822509939086
12
-1.45329144039063E-13
22
-791.161141077135
32
-543.749987447839
13
-123.76486986502
23
-781.420634573831
33
-543.749987447839
0
POINT
5
B301
100
AcDbEntity
8
JOINTS
100
AcDbPoint
10
623.470126396976
20
0
30
729.98972697603
0
POINT
5
B302
100
AcDbEntity
8
JOINTS
100
AcDbPoint
10
615.79417455167
20
97.5322156914761
30
729.98972697603
0
POINT
5
B303
100
AcDbEntity
8
JOINTS
100
AcDbPoint
10
474.090403485666
20
75.0885432193108
30
831.384387633061
0
POINT
5
B304
100
AcDbEntity
8
JOINTS
100
AcDbPoint
10
480
20
0
30
831.384387633061
0
POINT
5
B305
100
AcDbEntity
8
JOINTS
100
AcDbPoint
10
592.955326425207
20
192.662864541762
30
729.98972697603
0
POINT
5
B306
100
AcDbEntity
8
JOINTS
100
AcDbPoint
10
456.507127821674
20
148.328157299975
30
831.384387633061
0
POINT
5
B307
100
AcDbEntity
8
JOINTS
100
AcDbPoint
10
555.515950256252
20
283.049514255642
30
729.98972697603
0
POINT
5
B308
100
AcDbEntity
8
JOINTS
100
AcDbPoint
10
427.683131610417
20
217.915439874982
30
831.384387633061
0
POINT
5
B309
100
AcDbEntity
8
JOINTS
100
AcDbPoint
10
504.39792774025
20
366.466545541067
30
729.98972697603
0
POINT
5
B310
100
AcDbEntity
8
JOINTS
100
AcDbPoint
10
388.328157299975
20
282.136921100387
30
831.384387633061
0
POINT
5
B311
100
AcDbEntity
8
JOINTS
100
AcDbPoint
10
440.859954242536
20
440.859954242536
30
729.98972697603
0
POINT
5
B312
100
AcDbEntity
8
JOINTS
100
AcDbPoint
10
339.411254969543
20
339.411254969543
30
831.384387633061
0
POINT
5
B313
100
AcDbEntity
8
JOINTS
100
AcDbPoint
10
366.466545541067
20
504.39792774025
30
729.98972697603
0
POINT
5
B314
100
AcDbEntity
8
JOINTS
100
AcDbPoint
10
282.136921100387
20
388.328157299975
30
831.384387633061
0
POINT
5
B315
100
AcDbEntity
8
JOINTS
100
AcDbPoint
10
283.049514255642
20
555.515950256252
30
729.98972697603
0
POINT
5
B316
100
AcDbEntity
8
JOINTS
100
AcDbPoint
10
217.915439874982
20
427.683131610416
30
831.384387633061
0
POINT
5
B317
100
AcDbEntity
8
JOINTS
100
AcDbPoint
10
192.662864541762
20
592.955326425207
30
729.98972697603
0
POINT
5
B318
100
AcDbEntity
8
JOINTS
100
AcDbPoint
10
148.328157299975
20
456.507127821674
30
831.384387633061
0
POINT
5
B319
100
AcDbEntity
8
JOINTS
100
AcDbPoint
10
97.5322156914762
20
615.79417455167
30
729.98972697603
0
POINT
5
B320
100
AcDbEntity
8
JOINTS
100
AcDbPoint
10
75.0885432193108
20
474.090403485666
30
831.384387633061
0
POINT
5
B321
100
AcDbEntity
8
JOINTS
100
AcDbPoint
10
3.81752739102089E-14
20
623.470126396976
30
729.98972697603
0
POINT
5
B322
100
AcDbEntity
8
JOINTS
100
AcDbPoint
10
2.9390552491737E-14
20
480
30
831.384387633061
0
POINT
5
B323
100
AcDbEntity
8
JOINTS
100
AcDbPoint
10
-97.5322156914761
20
615.79417455167
30
729.98972697603
0
POINT
5
B324
100
AcDbEntity
8
JOINTS
100
AcDbPoint
10
-75.0885432193108
20
474.090403485666
30
831.384387633061
0
POINT
5
B325
100
AcDbEntity
8
JOINTS
100
AcDbPoint
10
-192.662864541762
20
592.955326425207
30
729.98972697603
0
POINT
5
B326
100
AcDbEntity
8
JOINTS
100
AcDbPoint
10
-148.328157299975
20
456.507127821674
30
831.384387633061
0
POINT
5
B327
100
AcDbEntity
8
JOINTS
100
AcDbPoint
10
-283.049514255642
20
555.515950256252
30
729.98972697603
0
POINT
5
B328
100
AcDbEntity
8
JOINTS
100
AcDbPoint
10
-217.915439874982
20
427.683131610417
30
831.384387633061
0
POINT
5
B329
100
AcDbEntity
8
JOINTS
100
AcDbPoint
10
-366.466545541067
20
504.39792774025
30
729.98972697603
0
POINT
5
B330
100
AcDbEntity
8
JOINTS
100
AcDbPoint
10
-282.136921100387
20
388.328157299975
30
831.384387633061
0
POINT
5
B331
100
AcDbEntity
8
JOINTS
100
AcDbPoint
10
-440.859954242536
20
440.859954242536
30
729.98972697603
0
POINT
5
B332
100
AcDbEntity
8
JOINTS
100
AcDbPoint
10
-339.411254969543
20
339.411254969543
30
831.384387633061
0
POINT
5
B333
100
AcDbEntity
8
JOINTS
100
AcDbPoint
10
-504.39792774025
20
366.466545541067
30
729.98972697603
0
POINT
5
B334
100
AcDbEntity
8
JOINTS
100
AcDbPoint
10
-388.328157299975
20
282.136921100387
30
831.384387633061
0
POINT
5
B335
100
AcDbEntity
8
JOINTS
100
AcDbPoint
10
-555.515950256252
20
283.049514255642
30
729.98972697603
0
POINT
5
B336
100
AcDbEntity
8
JOINTS
100
AcDbPoint
10
-427.683131610416
20
217.915439874982
30
831.384387633061
0
POINT
5
B337
100
AcDbEntity
8
JOINTS
100
AcDbPoint
10
-592.955326425207
20
192.662864541762
30
729.98972697603
0
POINT
5
B338
100
AcDbEntity
8
JOINTS
100
AcDbPoint
10
-456.507127821674
20
148.328157299975
30
831.384387633061
0
POINT
5
B339
100
AcDbEntity
8
JOINTS
100
AcDbPoint
10
-615.79417455167
20
97.5322156914762
30
729.98972697603
0
POINT
5
B340
100
AcDbEntity
8
JOINTS
100
AcDbPoint
10
-474.090403485666
20
75.0885432193109
30
831.384387633061
0
POINT
5
B341
100
AcDbEntity
8
JOINTS
100
AcDbPoint
10
-623.470126396976
20
7.63505478204178E-14
30
729.98972697603
0
POINT
5
B342
100
AcDbEntity
8
JOINTS
100
AcDbPoint
10
-480
20
5.87811049834741E-14
30
831.384387633061
0
POINT
5
B343
100
AcDbEntity
8
JOINTS
100
AcDbPoint
10
-615.79417455167
20
-97.532215691476
30
729.98972697603
0
POINT
5
B344
100
AcDbEntity
8
JOINTS
100
AcDbPoint
10
-474.090403485666
20
-75.0885432193107
30
831.384387633061
0
POINT
5
B345
100
AcDbEntity
8
JOINTS
100
AcDbPoint
10
-592.955326425207
20
-192.662864541762
30
729.98972697603
0
POINT
5
B346
100
AcDbEntity
8
JOINTS
100
AcDbPoint
10
-456.507127821674
20
-148.328157299975
30
831.384387633061
0
POINT
5
B347
100
AcDbEntity
8
JOINTS
100
AcDbPoint
10
-555.515950256252
20
-283.049514255642
30
729.98972697603
0
POINT
5
B348
100
AcDbEntity
8
JOINTS
100
AcDbPoint
10
-427.683131610417
20
-217.915439874982
30
831.384387633061
0
POINT
5
B349
100
AcDbEntity
8
JOINTS
100
AcDbPoint
10
-504.39792774025
20
-366.466545541067
30
729.98972697603
0
POINT
5
B350
100
AcDbEntity
8
JOINTS
100
AcDbPoint
10
-388.328157299975
20
-282.136921100387
30
831.384387633061
0
POINT
5
B351
100
AcDbEntity
8
JOINTS
100
AcDbPoint
10
-440.859954242536
20
-440.859954242536
30
729.98972697603
0
POINT
5
B352
100
AcDbEntity
8
JOINTS
100
AcDbPoint
10
-339.411254969543
20
-339.411254969543
30
831.384387633061
0
POINT
5
B353
100
AcDbEntity
8
JOINTS
100
AcDbPoint
10
-366.466545541067
20
-504.39792774025
30
729.98972697603
0
POINT
5
B354
100
AcDbEntity
8
JOINTS
100
AcDbPoint
10
-282.136921100387
20
-388.328157299975
30
831.384387633061
0
POINT
5
B355
100
AcDbEntity
8
JOINTS
100
AcDbPoint
10
-283.049514255642
20
-555.515950256252
30
729.98972697603
0
POINT
5
B356
100
AcDbEntity
8
JOINTS
100
AcDbPoint
10
-217.915439874982
20
-427.683131610416
30
831.384387633061
0
POINT
5
B357
100
AcDbEntity
8
JOINTS
100
AcDbPoint
10
-192.662864541762
20
-592.955326425207
30
729.98972697603
0
POINT
5
B358
100
AcDbEntity
8
JOINTS
100
AcDbPoint
10
-148.328157299975
20
-456.507127821674
30
831.384387633061
0
POINT
5
B359
100
AcDbEntity
8
JOINTS
100
AcDbPoint
10
-97.5322156914762
20
-615.79417455167
30
729.98972697603
0
POINT
5
B360
100
AcDbEntity
8
JOINTS
100
AcDbPoint
10
-75.0885432193109
20
-474.090403485666
30
831.384387633061
0
POINT
5
B361
100
AcDbEntity
8
JOINTS
100
AcDbPoint
10
-1.14525821730627E-13
20
-623.470126396976
30
729.98972697603
0
POINT
5
B362
100
AcDbEntity
8
JOINTS
100
AcDbPoint
10
-8.81716574752112E-14
20
-480
30
831.384387633061
0
POINT
5
B363
100
AcDbEntity
8
JOINTS
100
AcDbPoint
10
746.060122998692
20
0
30
604.147575407844
0
POINT
5
B364
100
AcDbEntity
8
JOINTS
100
AcDbPoint
10
736.874884868783
20
116.709516229149
30
604.147575407844
0
POINT
5
B365
100
AcDbEntity
8
JOINTS
100
AcDbPoint
10
709.54534152587
20
230.545256832059
30
604.147575407844
0
POINT
5
B366
100
AcDbEntity
8
JOINTS
100
AcDbPoint
10
664.744437028611
20
338.704208075924
30
604.147575407844
0
POINT
5
B367
100
AcDbEntity
8
JOINTS
100
AcDbPoint
10
603.575318331405
20
438.52313762214
30
604.147575407844
0
POINT
5
B368
100
AcDbEntity
8
JOINTS
100
AcDbPoint
10
527.544172145245
20
527.544172145245
30
604.147575407844
0
POINT
5
B369
100
AcDbEntity
8
JOINTS
100
AcDbPoint
10
438.52313762214
20
603.575318331405
30
604.147575407844
0
POINT
5
B370
100
AcDbEntity
8
JOINTS
100
AcDbPoint
10
338.704208075924
20
664.744437028611
30
604.147575407844
0
POINT
5
B371
100
AcDbEntity
8
JOINTS
100
AcDbPoint
10
230.545256832059
20
709.54534152587
30
604.147575407844
0
POINT
5
B372
100
AcDbEntity
8
JOINTS
100
AcDbPoint
10
116.709516229149
20
736.874884868783
30
604.147575407844
0
POINT
5
B373
100
AcDbEntity
8
JOINTS
100
AcDbPoint
10
4.56814983478851E-14
20
746.060122998692
30
604.147575407844
0
POINT
5
B374
100
AcDbEntity
8
JOINTS
100
AcDbPoint
10
-116.709516229149
20
736.874884868783
30
604.147575407844
0
POINT
5
B375
100
AcDbEntity
8
JOINTS
100
AcDbPoint
10
-230.545256832059
20
709.54534152587
30
604.147575407844
0
POINT
5
B376
100
AcDbEntity
8
JOINTS
100
AcDbPoint
10
-338.704208075924
20
664.744437028611
30
604.147575407844
0
POINT
5
B377
100
AcDbEntity
8
JOINTS
100
AcDbPoint
10
-438.52313762214
20
603.575318331405
30
604.147575407844
0
POINT
5
B378
100
AcDbEntity
8
JOINTS
100
AcDbPoint
10
-527.544172145245
20
527.544172145245
30
604.147575407844
0
POINT
5
B379
100
AcDbEntity
8
JOINTS
100
AcDbPoint
10
-603.575318331405
20
438.52313762214
30
604.147575407844
0
POINT
5
B380
100
AcDbEntity
8
JOINTS
100
AcDbPoint
10
-664.744437028611
20
338.704208075924
30
604.147575407844
0
POINT
5
B381
100
AcDbEntity
8
JOINTS
100
AcDbPoint
10
-709.54534152587
20
230.545256832059
30
604.147575407844
0
POINT
5
B382
100
AcDbEntity
8
JOINTS
100
AcDbPoint
10
-736.874884868782
20
116.709516229149
30
604.147575407844
0
POINT
5
B383
100
AcDbEntity
8
JOINTS
100
AcDbPoint
10
-746.060122998692
20
9.13629966957703E-14
30
604.147575407844
0
POINT
5
B384
100
AcDbEntity
8
JOINTS
100
AcDbPoint
10
-736.874884868783
20
-116.709516229149
30
604.147575407844
0
POINT
5
B385
100
AcDbEntity
8
JOINTS
100
AcDbPoint
10
-709.54534152587
20
-230.545256832059
30
604.147575407844
0
POINT
5
B386
100
AcDbEntity
8
JOINTS
100
AcDbPoint
10
-664.744437028611
20
-338.704208075924
30
604.147575407844
0
POINT
5
B387
100
AcDbEntity
8
JOINTS
100
AcDbPoint
10
-603.575318331406
20
-438.52313762214
30
604.147575407844
0
POINT
5
B388
100
AcDbEntity
8
JOINTS
100
AcDbPoint
10
-527.544172145245
20
-527.544172145245
30
604.147575407844
0
POINT
5
B389
100
AcDbEntity
8
JOINTS
100
AcDbPoint
10
-438.52313762214
20
-603.575318331405
30
604.147575407844
0
POINT
5
B390
100
AcDbEntity
8
JOINTS
100
AcDbPoint
10
-338.704208075924
20
-664.744437028611
30
604.147575407844
0
POINT
5
B391
100
AcDbEntity
8
JOINTS
100
AcDbPoint
10
-230.54525683206
20
-709.54534152587
30
604.147575407844
0
POINT
5
B392
100
AcDbEntity
8
JOINTS
100
AcDbPoint
10
-116.709516229149
20
-736.874884868782
30
604.147575407844
0
POINT
5
B393
100
AcDbEntity
8
JOINTS
100
AcDbPoint
10
-1.37044495043655E-13
20
-746.060122998692
30
604.147575407844
0
POINT
5
B394
100
AcDbEntity
8
JOINTS
100
AcDbPoint
10
843.664428155487
20
0
30
458.072409849224
0
POINT
5
B395
100
AcDbEntity
8
JOINTS
100
AcDbPoint
10
833.277519064039
20
131.978193491976
30
458.072409849224
0
POINT
5
B396
100
AcDbEntity
8
JOINTS
100
AcDbPoint
10
802.3725519637
20
260.706645849667
30
458.072409849224
0
POINT
5
B397
100
AcDbEntity
8
JOINTS
100
AcDbPoint
10
751.710509712187
20
383.015635350788
30
458.072409849224
0
POINT
5
B398
100
AcDbEntity
8
JOINTS
100
AcDbPoint
10
682.538859927411
20
495.893508753558
30
458.072409849224
0
POINT
5
B399
100
AcDbEntity
8
JOINTS
100
AcDbPoint
10
596.560838194616
20
596.560838194615
30
458.072409849224
0
POINT
5
B400
100
AcDbEntity
8
JOINTS
100
AcDbPoint
10
495.893508753558
20
682.538859927411
30
458.072409849224
0
POINT
5
B401
100
AcDbEntity
8
JOINTS
100
AcDbPoint
10
383.015635350788
20
751.710509712187
30
458.072409849224
0
POINT
5
B402
100
AcDbEntity
8
JOINTS
100
AcDbPoint
10
260.706645849667
20
802.3725519637
30
458.072409849224
0
POINT
5
B403
100
AcDbEntity
8
JOINTS
100
AcDbPoint
10
131.978193491976
20
833.277519064039
30
458.072409849224
0
POINT
5
B404
100
AcDbEntity
8
JOINTS
100
AcDbPoint
10
5.16578409606566E-14
20
843.664428155487
30
458.072409849224
0
POINT
5
B405
100
AcDbEntity
8
JOINTS
100
AcDbPoint
10
-131.978193491976
20
833.277519064039
30
458.072409849224
0
POINT
5
B406
100
AcDbEntity
8
JOINTS
100
AcDbPoint
10
-260.706645849667
20
802.3725519637
30
458.072409849224
0
POINT
5
B407
100
AcDbEntity
8
JOINTS
100
AcDbPoint
10
-383.015635350788
20
751.710509712187
30
458.072409849224
0
POINT
5
B408
100
AcDbEntity
8
JOINTS
100
AcDbPoint
10
-495.893508753558
20
682.538859927411
30
458.072409849224
0
POINT
5
B409
100
AcDbEntity
8
JOINTS
100
AcDbPoint
10
-596.560838194615
20
596.560838194616
30
458.072409849224
0
POINT
5
B410
100
AcDbEntity
8
JOINTS
100
AcDbPoint
10
-682.538859927411
20
495.893508753558
30
458.072409849224
0
POINT
5
B411
100
AcDbEntity
8
JOINTS
100
AcDbPoint
10
-751.710509712187
20
383.015635350788
30
458.072409849224
0
POINT
5
B412
100
AcDbEntity
8
JOINTS
100
AcDbPoint
10
-802.3725519637
20
260.706645849667
30
458.072409849224
0
POINT
5
B413
100
AcDbEntity
8
JOINTS
100
AcDbPoint
10
-833.277519064038
20
131.978193491976
30
458.072409849224
0
POINT
5
B414
100
AcDbEntity
8
JOINTS
100
AcDbPoint
10
-843.664428155487
20
1.03315681921313E-13
30
458.072409849224
0
POINT
5
B415
100
AcDbEntity
8
JOINTS
100
AcDbPoint
10
-833.277519064039
20
-131.978193491976
30
458.072409849224
0
POINT
5
B416
100
AcDbEntity
8
JOINTS
100
AcDbPoint
10
-802.3725519637
20
-260.706645849667
30
458.072409849224
0
POINT
5
B417
100
AcDbEntity
8
JOINTS
100
AcDbPoint
10
-751.710509712187
20
-383.015635350788
30
458.072409849224
0
POINT
5
B418
100
AcDbEntity
8
JOINTS
100
AcDbPoint
10
-682.538859927411
20
-495.893508753558
30
458.072409849224
0
POINT
5
B419
100
AcDbEntity
8
JOINTS
100
AcDbPoint
10
-596.560838194616
20
-596.560838194615
30
458.072409849224
0
POINT
5
B420
100
AcDbEntity
8
JOINTS
100
AcDbPoint
10
-495.893508753558
20
-682.538859927411
30
458.072409849224
0
POINT
5
B421
100
AcDbEntity
8
JOINTS
100
AcDbPoint
10
-383.015635350789
20
-751.710509712187
30
458.072409849224
0
POINT
5
B422
100
AcDbEntity
8
JOINTS
100
AcDbPoint
10
-260.706645849667
20
-802.3725519637
30
458.072409849224
0
POINT
5
B423
100
AcDbEntity
8
JOINTS
100
AcDbPoint
10
-131.978193491976
20
-833.277519064038
30
458.072409849224
0
POINT
5
B424
100
AcDbEntity
8
JOINTS
100
AcDbPoint
10
-1.5497352288197E-13
20
-843.664428155487
30
458.072409849224
0
POINT
5
B425
100
AcDbEntity
8
JOINTS
100
AcDbPoint
10
913.014255643347
20
0
30
296.65631459995
0
POINT
5
B426
100
AcDbEntity
8
JOINTS
100
AcDbPoint
10
901.773535096083
20
142.826896655672
30
296.65631459995
0
POINT
5
B427
100
AcDbEntity
8
JOINTS
100
AcDbPoint
10
868.328157299975
20
282.136921100387
30
296.65631459995
0
POINT
5
B428
100
AcDbEntity
8
JOINTS
100
AcDbPoint
10
813.501658455209
20
414.499798188854
30
296.65631459995
0
POINT
5
B429
100
AcDbEntity
8
JOINTS
100
AcDbPoint
10
738.644048922061
20
536.65631459995
30
296.65631459995
0
POINT
5
B430
100
AcDbEntity
8
JOINTS
100
AcDbPoint
10
645.598571485399
20
645.598571485399
30
296.65631459995
0
POINT
5
B431
100
AcDbEntity
8
JOINTS
100
AcDbPoint
10
536.65631459995
20
738.644048922061
30
296.65631459995
0
POINT
5
B432
100
AcDbEntity
8
JOINTS
100
AcDbPoint
10
414.499798188854
20
813.501658455209
30
296.65631459995
0
POINT
5
B433
100
AcDbEntity
8
JOINTS
100
AcDbPoint
10
282.136921100387
20
868.328157299975
30
296.65631459995
0
POINT
5
B434
100
AcDbEntity
8
JOINTS
100
AcDbPoint
10
142.826896655672
20
901.773535096083
30
296.65631459995
0
POINT
5
B435
100
AcDbEntity
8
JOINTS
100
AcDbPoint
10
5.59041529295626E-14
20
913.014255643347
30
296.65631459995
0
POINT
5
B436
100
AcDbEntity
8
JOINTS
100
AcDbPoint
10
-142.826896655672
20
901.773535096083
30
296.65631459995
0
POINT
5
B437
100
AcDbEntity
8
JOINTS
100
AcDbPoint
10
-282.136921100387
20
868.328157299975
30
296.65631459995
0
POINT
5
B438
100
AcDbEntity
8
JOINTS
100
AcDbPoint
10
-414.499798188854
20
813.501658455209
30
296.65631459995
0
POINT
5
B439
100
AcDbEntity
8
JOINTS
100
AcDbPoint
10
-536.656314599949
20
738.644048922061
30
296.65631459995
0
POINT
5
B440
100
AcDbEntity
8
JOINTS
100
AcDbPoint
10
-645.598571485399
20
645.598571485399
30
296.65631459995
0
POINT
5
B441
100
AcDbEntity
8
JOINTS
100
AcDbPoint
10
-738.644048922061
20
536.65631459995
30
296.65631459995
0
POINT
5
B442
100
AcDbEntity
8
JOINTS
100
AcDbPoint
10
-813.501658455209
20
414.499798188854
30
296.65631459995
0
POINT
5
B443
100
AcDbEntity
8
JOINTS
100
AcDbPoint
10
-868.328157299975
20
282.136921100387
30
296.65631459995
0
POINT
5
B444
100
AcDbEntity
8
JOINTS
100
AcDbPoint
10
-901.773535096083
20
142.826896655672
30
296.65631459995
0
POINT
5
B445
100
AcDbEntity
8
JOINTS
100
AcDbPoint
10
-913.014255643347
20
1.11808305859125E-13
30
296.65631459995
0
POINT
5
B446
100
AcDbEntity
8
JOINTS
100
AcDbPoint
10
-901.773535096083
20
-142.826896655672
30
296.65631459995
0
POINT
5
B447
100
AcDbEntity
8
JOINTS
100
AcDbPoint
10
-868.328157299975
20
-282.136921100387
30
296.65631459995
0
POINT
5
B448
100
AcDbEntity
8
JOINTS
100
AcDbPoint
10
-813.501658455209
20
-414.499798188854
30
296.65631459995
0
POINT
5
B449
100
AcDbEntity
8
JOINTS
100
AcDbPoint
10
-738.644048922061
20
-536.656314599949
30
296.65631459995
0
POINT
5
B450
100
AcDbEntity
8
JOINTS
100
AcDbPoint
10
-645.598571485399
20
-645.598571485399
30
296.65631459995
0
POINT
5
B451
100
AcDbEntity
8
JOINTS
100
AcDbPoint
10
-536.65631459995
20
-738.644048922061
30
296.65631459995
0
POINT
5
B452
100
AcDbEntity
8
JOINTS
100
AcDbPoint
10
-414.499798188854
20
-813.501658455209
30
296.65631459995
0
POINT
5
B453
100
AcDbEntity
8
JOINTS
100
AcDbPoint
10
-282.136921100387
20
-868.328157299975
30
296.65631459995
0
POINT
5
B454
100
AcDbEntity
8
JOINTS
100
AcDbPoint
10
-142.826896655672
20
-901.773535096083
30
296.65631459995
0
POINT
5
B455
100
AcDbEntity
8
JOINTS
100
AcDbPoint
10
-1.67712458788688E-13
20
-913.014255643347
30
296.65631459995
0
POINT
5
B456
100
AcDbEntity
8
JOINTS
100
AcDbPoint
10
951.787066918858
20
0
30
125.30514453125
0
POINT
5
B457
100
AcDbEntity
8
JOINTS
100
AcDbPoint
10
940.068988725
20
148.892300645662
30
125.30514453125
0
POINT
5
B458
100
AcDbEntity
8
JOINTS
100
AcDbPoint
10
905.203292118631
20
294.118378704212
30
125.30514453125
0
POINT
5
B459
100
AcDbEntity
8
JOINTS
100
AcDbPoint
10
848.048486262813
20
432.10228615613
30
125.30514453125
0
POINT
5
B460
100
AcDbEntity
8
JOINTS
100
AcDbPoint
10
770.011912163641
20
559.446401257614
30
125.30514453125
0
POINT
5
B461
100
AcDbEntity
8
JOINTS
100
AcDbPoint
10
673.015089263979
20
673.015089263979
30
125.30514453125
0
POINT
5
B462
100
AcDbEntity
8
JOINTS
100
AcDbPoint
10
559.446401257614
20
770.011912163641
30
125.30514453125
0
POINT
5
B463
100
AcDbEntity
8
JOINTS
100
AcDbPoint
10
432.10228615613
20
848.048486262813
30
125.30514453125
0
POINT
5
B464
100
AcDbEntity
8
JOINTS
100
AcDbPoint
10
294.118378704212
20
905.203292118631
30
125.30514453125
0
POINT
5
B465
100
AcDbEntity
8
JOINTS
100
AcDbPoint
10
148.892300645662
20
940.068988725
30
125.30514453125
0
POINT
5
B466
100
AcDbEntity
8
JOINTS
100
AcDbPoint
10
5.82782244817399E-14
20
951.787066918858
30
125.30514453125
0
POINT
5
B467
100
AcDbEntity
8
JOINTS
100
AcDbPoint
10
-148.892300645662
20
940.068988725
30
125.30514453125
0
POINT
5
B468
100
AcDbEntity
8
JOINTS
100
AcDbPoint
10
-294.118378704212
20
905.203292118631
30
125.30514453125
0
POINT
5
B469
100
AcDbEntity
8
JOINTS
100
AcDbPoint
10
-432.10228615613
20
848.048486262813
30
125.30514453125
0
POINT
5
B470
100
AcDbEntity
8
JOINTS
100
AcDbPoint
10
-559.446401257614
20
770.011912163641
30
125.30514453125
0
POINT
5
B471
100
AcDbEntity
8
JOINTS
100
AcDbPoint
10
-673.015089263979
20
673.015089263979
30
125.30514453125
0
POINT
5
B472
100
AcDbEntity
8
JOINTS
100
AcDbPoint
10
-770.011912163641
20
559.446401257614
30
125.30514453125
0
POINT
5
B473
100
AcDbEntity
8
JOINTS
100
AcDbPoint
10
-848.048486262813
20
432.10228615613
30
125.30514453125
0
POINT
5
B474
100
AcDbEntity
8
JOINTS
100
AcDbPoint
10
-905.203292118631
20
294.118378704213
30
125.30514453125
0
POINT
5
B475
100
AcDbEntity
8
JOINTS
100
AcDbPoint
10
-940.068988725
20
148.892300645662
30
125.30514453125
0
POINT
5
B476
100
AcDbEntity
8
JOINTS
100
AcDbPoint
10
-951.787066918858
20
1.1655644896348E-13
30
125.30514453125
0
POINT
5
B477
100
AcDbEntity
8
JOINTS
100
AcDbPoint
10
-940.068988725
20
-148.892300645662
30
125.30514453125
0
POINT
5
B478
100
AcDbEntity
8
JOINTS
100
AcDbPoint
10
-905.203292118631
20
-294.118378704212
30
125.30514453125
0
POINT
5
B479
100
AcDbEntity
8
JOINTS
100
AcDbPoint
10
-848.048486262813
20
-432.10228615613
30
125.30514453125
0
POINT
5
B480
100
AcDbEntity
8
JOINTS
100
AcDbPoint
10
-770.011912163642
20
-559.446401257614
30
125.30514453125
0
POINT
5
B481
100
AcDbEntity
8
JOINTS
100
AcDbPoint
10
-673.015089263979
20
-673.015089263979
30
125.30514453125
0
POINT
5
B482
100
AcDbEntity
8
JOINTS
100
AcDbPoint
10
-559.446401257614
20
-770.011912163641
30
125.30514453125
0
POINT
5
B483
100
AcDbEntity
8
JOINTS
100
AcDbPoint
10
-432.10228615613
20
-848.048486262813
30
125.30514453125
0
POINT
5
B484
100
AcDbEntity
8
JOINTS
100
AcDbPoint
10
-294.118378704213
20
-905.203292118631
30
125.30514453125
0
POINT
5
B485
100
AcDbEntity
8
JOINTS
100
AcDbPoint
10
-148.892300645662
20
-940.068988725
30
125.30514453125
0
POINT
5
B486
100
AcDbEntity
8
JOINTS
100
AcDbPoint
10
-1.7483467344522E-13
20
-951.787066918858
30
125.30514453125
0
POINT
5
B487
100
AcDbEntity
8
JOINTS
100
AcDbPoint
10
958.684353364391
20
0
30
-50.2425179932261
0
POINT
5
B488
100
AcDbEntity
8
JOINTS
100
AcDbPoint
10
946.881358128998
20
149.971273960998
30
-50.2425179932261
0
POINT
5
B489
100
AcDbEntity
8
JOINTS
100
AcDbPoint
10
911.763001337409
20
296.249757430954
30
-50.2425179932261
0
POINT
5
B490
100
AcDbEntity
8
JOINTS
100
AcDbPoint
10
854.194013484979
20
435.233588676384
30
-50.2425179932261
0
POINT
5
B491
100
AcDbEntity
8
JOINTS
100
AcDbPoint
10
775.59193411315
20
563.500524511135
30
-50.2425179932261
0
POINT
5
B492
100
AcDbEntity
8
JOINTS
100
AcDbPoint
10
677.892207281401
20
677.892207281401
30
-50.2425179932261
0
POINT
5
B493
100
AcDbEntity
8
JOINTS
100
AcDbPoint
10
563.500524511135
20
775.59193411315
30
-50.2425179932261
0
POINT
5
B494
100
AcDbEntity
8
JOINTS
100
AcDbPoint
10
435.233588676384
20
854.194013484979
30
-50.2425179932261
0
POINT
5
B495
100
AcDbEntity
8
JOINTS
100
AcDbPoint
10
296.249757430954
20
911.763001337409
30
-50.2425179932261
0
POINT
5
B496
100
AcDbEntity
8
JOINTS
100
AcDbPoint
10
149.971273960998
20
946.881358128998
30
-50.2425179932261
0
POINT
5
B497
100
AcDbEntity
8
JOINTS
100
AcDbPoint
10
5.87005475220065E-14
20
958.684353364391
30
-50.2425179932261
0
POINT
5
B498
100
AcDbEntity
8
JOINTS
100
AcDbPoint
10
-149.971273960998
20
946.881358128998
30
-50.2425179932261
0
POINT
5
B499
100
AcDbEntity
8
JOINTS
100
AcDbPoint
10
-296.249757430954
20
911.76300133741
30
-50.2425179932261
0
POINT
5
B500
100
AcDbEntity
8
JOINTS
100
AcDbPoint
10
-435.233588676384
20
854.194013484979
30
-50.2425179932261
0
POINT
5
B501
100
AcDbEntity
8
JOINTS
100
AcDbPoint
10
-563.500524511135
20
775.59193411315
30
-50.2425179932261
0
POINT
5
B502
100
AcDbEntity
8
JOINTS
100
AcDbPoint
10
-677.892207281401
20
677.892207281401
30
-50.2425179932261
0
POINT
5
B503
100
AcDbEntity
8
JOINTS
100
AcDbPoint
10
-775.591934113149
20
563.500524511135
30
-50.2425179932261
0
POINT
5
B504
100
AcDbEntity
8
JOINTS
100
AcDbPoint
10
-854.194013484979
20
435.233588676384
30
-50.2425179932261
0
POINT
5
B505
100
AcDbEntity
8
JOINTS
100
AcDbPoint
10
-911.763001337409
20
296.249757430954
30
-50.2425179932261
0
POINT
5
B506
100
AcDbEntity
8
JOINTS
100
AcDbPoint
10
-946.881358128998
20
149.971273960998
30
-50.2425179932261
0
POINT
5
B507
100
AcDbEntity
8
JOINTS
100
AcDbPoint
10
-958.684353364391
20
1.17401095044013E-13
30
-50.2425179932261
0
POINT
5
B508
100
AcDbEntity
8
JOINTS
100
AcDbPoint
10
-946.881358128998
20
-149.971273960998
30
-50.2425179932261
0
POINT
5
B509
100
AcDbEntity
8
JOINTS
100
AcDbPoint
10
-911.76300133741
20
-296.249757430954
30
-50.2425179932261
0
POINT
5
B510
100
AcDbEntity
8
JOINTS
100
AcDbPoint
10
-854.194013484979
20
-435.233588676384
30
-50.2425179932261
0
POINT
5
B511
100
AcDbEntity
8
JOINTS
100
AcDbPoint
10
-775.59193411315
20
-563.500524511135
30
-50.2425179932261
0
POINT
5
B512
100
AcDbEntity
8
JOINTS
100
AcDbPoint
10
-677.892207281401
20
-677.892207281401
30
-50.2425179932261
0
POINT
5
B513
100
AcDbEntity
8
JOINTS
100
AcDbPoint
10
-563.500524511135
20
-775.591934113149
30
-50.2425179932261
0
POINT
5
B514
100
AcDbEntity
8
JOINTS
100
AcDbPoint
10
-435.233588676384
20
-854.194013484979
30
-50.2425179932261
0
POINT
5
B515
100
AcDbEntity
8
JOINTS
100
AcDbPoint
10
-296.249757430954
20
-911.763001337409
30
-50.2425179932261
0
POINT
5
B516
100
AcDbEntity
8
JOINTS
100
AcDbPoint
10
-149.971273960998
20
-946.881358128998
30
-50.2425179932261
0
POINT
5
B517
100
AcDbEntity
8
JOINTS
100
AcDbPoint
10
-1.7610164256602E-13
20
-958.684353364391
30
-50.2425179932261
0
POINT
5
B518
100
AcDbEntity
8
JOINTS
100
AcDbPoint
10
933.47512358177
20
0
30
-224.107549301669
0
POINT
5
B519
100
AcDbEntity
8
JOINTS
100
AcDbPoint
10
921.982495797319
20
146.027681585878
30
-224.107549301669
0
POINT
5
B520
100
AcDbEntity
8
JOINTS
100
AcDbPoint
10
887.787599081866
20
288.459677013021
30
-224.107549301669
0
POINT
5
B521
100
AcDbEntity
8
JOINTS
100
AcDbPoint
10
831.7324252789
20
423.788837849323
30
-224.107549301669
0
POINT
5
B522
100
AcDbEntity
8
JOINTS
100
AcDbPoint
10
755.197238803906
20
548.682911023258
30
-224.107549301669
0
POINT
5
B523
100
AcDbEntity
8
JOINTS
100
AcDbPoint
10
660.06658995362
20
660.06658995362
30
-224.107549301669
0
POINT
5
B524
100
AcDbEntity
8
JOINTS
100
AcDbPoint
10
548.682911023258
20
755.197238803906
30
-224.107549301669
0
POINT
5
B525
100
AcDbEntity
8
JOINTS
100
AcDbPoint
10
423.788837849323
20
831.7324252789
30
-224.107549301669
0
POINT
5
B526
100
AcDbEntity
8
JOINTS
100
AcDbPoint
10
288.459677013021
20
887.787599081866
30
-224.107549301669
0
POINT
5
B527
100
AcDbEntity
8
JOINTS
100
AcDbPoint
10
146.027681585878
20
921.982495797319
30
-224.107549301669
0
POINT
5
B528
100
AcDbEntity
8
JOINTS
100
AcDbPoint
10
5.71569783736682E-14
20
933.47512358177
30
-224.107549301669
0
POINT
5
B529
100
AcDbEntity
8
JOINTS
100
AcDbPoint
10
-146.027681585877
20
921.982495797319
30
-224.107549301669
0
POINT
5
B530
100
AcDbEntity
8
JOINTS
100
AcDbPoint
10
-288.459677013021
20
887.787599081866
30
-224.107549301669
0
POINT
5
B531
100
AcDbEntity
8
JOINTS
100
AcDbPoint
10
-423.788837849323
20
831.7324252789
30
-224.107549301669
0
POINT
5
B532
100
AcDbEntity
8
JOINTS
100
AcDbPoint
10
-548.682911023258
20
755.197238803906
30
-224.107549301669
0
POINT
5
B533
100
AcDbEntity
8
JOINTS
100
AcDbPoint
10
-660.06658995362
20
660.06658995362
30
-224.107549301669
0
POINT
5
B534
100
AcDbEntity
8
JOINTS
100
AcDbPoint
10
-755.197238803906
20
548.682911023258
30
-224.107549301669
0
POINT
5
B535
100
AcDbEntity
8
JOINTS
100
AcDbPoint
10
-831.7324252789
20
423.788837849323
30
-224.107549301669
0
POINT
5
B536
100
AcDbEntity
8
JOINTS
100
AcDbPoint
10
-887.787599081866
20
288.459677013021
30
-224.107549301669
0
POINT
5
B537
100
AcDbEntity
8
JOINTS
100
AcDbPoint
10
-921.982495797319
20
146.027681585878
30
-224.107549301669
0
POINT
5
B538
100
AcDbEntity
8
JOINTS
100
AcDbPoint
10
-933.47512358177
20
1.14313956747336E-13
30
-224.107549301669
0
POINT
5
B539
100
AcDbEntity
8
JOINTS
100
AcDbPoint
10
-921.982495797319
20
-146.027681585877
30
-224.107549301669
0
POINT
5
B540
100
AcDbEntity
8
JOINTS
100
AcDbPoint
10
-887.787599081866
20
-288.459677013021
30
-224.107549301669
0
POINT
5
B541
100
AcDbEntity
8
JOINTS
100
AcDbPoint
10
-831.7324252789
20
-423.788837849323
30
-224.107549301669
0
POINT
5
B542
100
AcDbEntity
8
JOINTS
100
AcDbPoint
10
-755.197238803906
20
-548.682911023258
30
-224.107549301669
0
POINT
5
B543
100
AcDbEntity
8
JOINTS
100
AcDbPoint
10
-660.06658995362
20
-660.06658995362
30
-224.107549301669
0
POINT
5
B544
100
AcDbEntity
8
JOINTS
100
AcDbPoint
10
-548.682911023258
20
-755.197238803906
30
-224.107549301669
0
POINT
5
B545
100
AcDbEntity
8
JOINTS
100
AcDbPoint
10
-423.788837849323
20
-831.7324252789
30
-224.107549301669
0
POINT
5
B546
100
AcDbEntity
8
JOINTS
100
AcDbPoint
10
-288.459677013021
20
-887.787599081866
30
-224.107549301669
0
POINT
5
B547
100
AcDbEntity
8
JOINTS
100
AcDbPoint
10
-146.027681585878
20
-921.982495797319
30
-224.107549301669
0
POINT
5
B548
100
AcDbEntity
8
JOINTS
100
AcDbPoint
10
-1.71470935121005E-13
20
-933.47512358177
30
-224.107549301669
0
POINT
5
B549
100
AcDbEntity
8
JOINTS
100
AcDbPoint
10
877.003639336897
20
0
30
-390.467177352768
0
POINT
5
B550
100
AcDbEntity
8
JOINTS
100
AcDbPoint
10
866.206269232556
20
137.193595158003
30
-390.467177352768
0
POINT
5
B551
100
AcDbEntity
8
JOINTS
100
AcDbPoint
10
834.08002600592
20
271.009028683778
30
-390.467177352768
0
POINT
5
B552
100
AcDbEntity
8
JOINTS
100
AcDbPoint
10
781.415964386118
20
398.151320495959
30
-390.467177352768
0
POINT
5
B553
100
AcDbEntity
8
JOINTS
100
AcDbPoint
10
709.510848352227
20
515.489805409055
30
-390.467177352768
0
POINT
5
B554
100
AcDbEntity
8
JOINTS
100
AcDbPoint
10
620.135220500401
20
620.135220500401
30
-390.467177352768
0
POINT
5
B555
100
AcDbEntity
8
JOINTS
100
AcDbPoint
10
515.489805409055
20
709.510848352227
30
-390.467177352768
0
POINT
5
B556
100
AcDbEntity
8
JOINTS
100
AcDbPoint
10
398.151320495959
20
781.415964386117
30
-390.467177352768
0
POINT
5
B557
100
AcDbEntity
8
JOINTS
100
AcDbPoint
10
271.009028683778
20
834.08002600592
30
-390.467177352768
0
POINT
5
B558
100
AcDbEntity
8
JOINTS
100
AcDbPoint
10
137.193595158003
20
866.206269232556
30
-390.467177352768
0
POINT
5
B559
100
AcDbEntity
8
JOINTS
100
AcDbPoint
10
5.36992114528656E-14
20
877.003639336897
30
-390.467177352768
0
POINT
5
B560
100
AcDbEntity
8
JOINTS
100
AcDbPoint
10
-137.193595158003
20
866.206269232556
30
-390.467177352768
0
POINT
5
B561
100
AcDbEntity
8
JOINTS
100
AcDbPoint
10
-271.009028683778
20
834.080026005921
30
-390.467177352768
0
POINT
5
B562
100
AcDbEntity
8
JOINTS
100
AcDbPoint
10
-398.151320495959
20
781.415964386118
30
-390.467177352768
0
POINT
5
B563
100
AcDbEntity
8
JOINTS
100
AcDbPoint
10
-515.489805409055
20
709.510848352227
30
-390.467177352768
0
POINT
5
B564
100
AcDbEntity
8
JOINTS
100
AcDbPoint
10
-620.135220500401
20
620.135220500401
30
-390.467177352768
0
POINT
5
B565
100
AcDbEntity
8
JOINTS
100
AcDbPoint
10
-709.510848352227
20
515.489805409055
30
-390.467177352768
0
POINT
5
B566
100
AcDbEntity
8
JOINTS
100
AcDbPoint
10
-781.415964386117
20
398.151320495959
30
-390.467177352768
0
POINT
5
B567
100
AcDbEntity
8
JOINTS
100
AcDbPoint
10
-834.08002600592
20
271.009028683778
30
-390.467177352768
0
POINT
5
B568
100
AcDbEntity
8
JOINTS
100
AcDbPoint
10
-866.206269232556
20
137.193595158003
30
-390.467177352768
0
POINT
5
B569
100
AcDbEntity
8
JOINTS
100
AcDbPoint
10
-877.003639336897
20
1.07398422905731E-13
30
-390.467177352768
0
POINT
5
B570
100
AcDbEntity
8
JOINTS
100
AcDbPoint
10
-866.206269232556
20
-137.193595158003
30
-390.467177352768
0
POINT
5
B571
100
AcDbEntity
8
JOINTS
100
AcDbPoint
10
-834.080026005921
20
-271.009028683778
30
-390.467177352768
0
POINT
5
B572
100
AcDbEntity
8
JOINTS
100
AcDbPoint
10
-781.415964386118
20
-398.151320495959
30
-390.467177352768
0
POINT
5
B573
100
AcDbEntity
8
JOINTS
100
AcDbPoint
10
-709.510848352227
20
-515.489805409055
30
-390.467177352768
0
POINT
5
B574
100
AcDbEntity
8
JOINTS
100
AcDbPoint
10
-620.135220500401
20
-620.135220500401
30
-390.467177352768
0
POINT
5
B575
100
AcDbEntity
8
JOINTS
100
AcDbPoint
10
-515.489805409055
20
-709.510848352227
30
-390.467177352768
0
POINT
5
B576
100
AcDbEntity
8
JOINTS
100
AcDbPoint
10
-398.151320495959
20
-781.415964386117
30
-390.467177352768
0
POINT
5
B577
100
AcDbEntity
8
JOINTS
100
AcDbPoint
10
-271.009028683778
20
-834.08002600592
30
-390.467177352768
0
POINT
5
B578
100
AcDbEntity
8
JOINTS
100
AcDbPoint
10
-137.193595158003
20
-866.206269232556
30
-390.467177352768
0
POINT
5
B579
100
AcDbEntity
8
JOINTS
100
AcDbPoint
10
-1.61097634358597E-13
20
-877.003639336897
30
-390.467177352768
0
POINT
5
B580
100
AcDbEntity
8
JOINTS
100
AcDbPoint
10
791.161141077135
20
0
30
-543.749987447839
0
POINT
5
B581
100
AcDbEntity
8
JOINTS
100
AcDbPoint
10
781.420634573831
20
123.76486986502
30
-543.749987447839
0
POINT
5
B582
100
AcDbEntity
8
JOINTS
100
AcDbPoint
10
752.438958660919
20
244.48223788191
30
-543.749987447839
0
POINT
5
B583
100
AcDbEntity
8
JOINTS
100
AcDbPoint
10
704.929738384041
20
359.179641812119
30
-543.749987447839
0
POINT
5
B584
100
AcDbEntity
8
JOINTS
100
AcDbPoint
10
640.062808420478
20
465.032850912025
30
-543.749987447839
0
POINT
5
B585
100
AcDbEntity
8
JOINTS
100
AcDbPoint
10
559.435407866929
20
559.435407866929
30
-543.749987447839
0
POINT
5
B586
100
AcDbEntity
8
JOINTS
100
AcDbPoint
10
465.032850912025
20
640.062808420478
30
-543.749987447839
0
POINT
5
B587
100
AcDbEntity
8
JOINTS
100
AcDbPoint
10
359.179641812119
20
704.929738384041
30
-543.749987447839
0
POINT
5
B588
100
AcDbEntity
8
JOINTS
100
AcDbPoint
10
244.48223788191
20
752.438958660919
30
-543.749987447839
0
POINT
5
B589
100
AcDbEntity
8
JOINTS
100
AcDbPoint
10
123.76486986502
20
781.420634573831
30
-543.749987447839
0
POINT
5
B590
100
AcDbEntity
8
JOINTS
100
AcDbPoint
10
4.84430480130211E-14
20
791.161141077135
30
-543.749987447839
0
POINT
5
B591
100
AcDbEntity
8
JOINTS
100
AcDbPoint
10
-123.76486986502
20
781.420634573831
30
-543.749987447839
0
POINT
5
B592
100
AcDbEntity
8
JOINTS
100
AcDbPoint
10
-244.48223788191
20
752.438958660919
30
-543.749987447839
0
POINT
5
B593
100
AcDbEntity
8
JOINTS
100
AcDbPoint
10
-359.179641812119
20
704.929738384041
30
-543.749987447839
0
POINT
5
B594
100
AcDbEntity
8
JOINTS
100
AcDbPoint
10
-465.032850912025
20
640.062808420478
30
-543.749987447839
0
POINT
5
B595
100
AcDbEntity
8
JOINTS
100
AcDbPoint
10
-559.435407866929
20
559.435407866929
30
-543.749987447839
0
POINT
5
B596
100
AcDbEntity
8
JOINTS
100
AcDbPoint
10
-640.062808420478
20
465.032850912025
30
-543.749987447839
0
POINT
5
B597
100
AcDbEntity
8
JOINTS
100
AcDbPoint
10
-704.929738384041
20
359.179641812119
30
-543.749987447839
0
POINT
5
B598
100
AcDbEntity
8
JOINTS
100
AcDbPoint
10
-752.438958660919
20
244.48223788191
30
-543.749987447839
0
POINT
5
B599
100
AcDbEntity
8
JOINTS
100
AcDbPoint
10
-781.420634573831
20
123.76486986502
30
-543.749987447839
0
POINT
5
B600
100
AcDbEntity
8
JOINTS
100
AcDbPoint
10
-791.161141077135
20
9.68860960260422E-14
30
-543.749987447839
0
POINT
5
B601
100
AcDbEntity
8
JOINTS
100
AcDbPoint
10
-781.420634573831
20
-123.76486986502
30
-543.749987447839
0
POINT
5
B602
100
AcDbEntity
8
JOINTS
100
AcDbPoint
10
-752.438958660919
20
-244.48223788191
30
-543.749987447839
0
POINT
5
B603
100
AcDbEntity
8
JOINTS
100
AcDbPoint
10
-704.929738384041
20
-359.179641812119
30
-543.749987447839
0
POINT
5
B604
100
AcDbEntity
8
JOINTS
100
AcDbPoint
10
-640.062808420478
20
-465.032850912025
30
-543.749987447839
0
POINT
5
B605
100
AcDbEntity
8
JOINTS
100
AcDbPoint
10
-559.435407866929
20
-559.435407866929
30
-543.749987447839
0
POINT
5
B606
100
AcDbEntity
8
JOINTS
100
AcDbPoint
10
-465.032850912025
20
-640.062808420478
30
-543.749987447839
0
POINT
5
B607
100
AcDbEntity
8
JOINTS
100
AcDbPoint
10
-359.179641812119
20
-704.929738384041
30
-543.749987447839
0
POINT
5
B608
100
AcDbEntity
8
JOINTS
100
AcDbPoint
10
-244.48223788191
20
-752.438958660919
30
-543.749987447839
0
POINT
5
B609
100
AcDbEntity
8
JOINTS
100
AcDbPoint
10
-123.76486986502
20
-781.420634573831
30
-543.749987447839
0
POINT
5
B610
100
AcDbEntity
8
JOINTS
100
AcDbPoint
10
-1.45329144039063E-13
20
-791.161141077135
30
-543.749987447839
0
POINT
5
B611
100
AcDbEntity
8
JOINTS
100
AcDbPoint
10
678.822509939086
20
0
30
-678.822509939086
0
POINT
5
B612
100
AcDbEntity
8
JOINTS
100
AcDbPoint
10
670.465078400362
20
106.191236199588
30
-678.822509939086
0
POINT
5
B613
100
AcDbEntity
8
JOINTS
100
AcDbPoint
10
645.598571485399
20
209.767691735434
30
-678.822509939086
0
POINT
5
B614
100
AcDbEntity
8
JOINTS
100
AcDbPoint
10
604.835285121649
20
308.178970521699
30
-678.822509939086
0
POINT
5
B615
100
AcDbEntity
8
JOINTS
100
AcDbPoint
10
549.178946704977
20
399.001860266355
30
-678.822509939086
0
POINT
5
B616
100
AcDbEntity
8
JOINTS
100
AcDbPoint
10
480
20
480
30
-678.822509939086
0
POINT
5
B617
100
AcDbEntity
8
JOINTS
100
AcDbPoint
10
399.001860266355
20
549.178946704977
30
-678.822509939086
0
POINT
5
B618
100
AcDbEntity
8
JOINTS
100
AcDbPoint
10
308.178970521699
20
604.835285121648
30
-678.822509939086
0
POINT
5
B619
100
AcDbEntity
8
JOINTS
100
AcDbPoint
10
209.767691735434
20
645.598571485399
30
-678.822509939086
0
POINT
5
B620
100
AcDbEntity
8
JOINTS
100
AcDbPoint
10
106.191236199588
20
670.465078400362
30
-678.822509939086
0
POINT
5
B621
100
AcDbEntity
8
JOINTS
100
AcDbPoint
10
4.15645179394529E-14
20
678.822509939086
30
-678.822509939086
0
POINT
5
B622
100
AcDbEntity
8
JOINTS
100
AcDbPoint
10
-106.191236199588
20
670.465078400362
30
-678.822509939086
0
POINT
5
B623
100
AcDbEntity
8
JOINTS
100
AcDbPoint
10
-209.767691735434
20
645.598571485399
30
-678.822509939086
0
POINT
5
B624
100
AcDbEntity
8
JOINTS
100
AcDbPoint
10
-308.178970521699
20
604.835285121649
30
-678.822509939086
0
POINT
5
B625
100
AcDbEntity
8
JOINTS
100
AcDbPoint
10
-399.001860266355
20
549.178946704977
30
-678.822509939086
0
POINT
5
B626
100
AcDbEntity
8
JOINTS
100
AcDbPoint
10
-480
20
480
30
-678.822509939086
0
POINT
5
B627
100
AcDbEntity
8
JOINTS
100
AcDbPoint
10
-549.178946704977
20
399.001860266355
30
-678.822509939086
0
POINT
5
B628
100
AcDbEntity
8
JOINTS
100
AcDbPoint
10
-604.835285121648
20
308.178970521699
30
-678.822509939086
0
POINT
5
B629
100
AcDbEntity
8
JOINTS
100
AcDbPoint
10
-645.598571485399
20
209.767691735434
30
-678.822509939086
0
POINT
5
B630
100
AcDbEntity
8
JOINTS
100
AcDbPoint
10
-670.465078400362
20
106.191236199588
30
-678.822509939086
0
POINT
5
B631
100
AcDbEntity
8
JOINTS
100
AcDbPoint
10
-678.822509939086
20
8.31290358789058E-14
30
-678.822509939086
0
POINT
5
B632
100
AcDbEntity
8
JOINTS
100
AcDbPoint
10
-670.465078400362
20
-106.191236199588
30
-678.822509939086
0
POINT
5
B633
100
AcDbEntity
8
JOINTS
100
AcDbPoint
10
-645.598571485399
20
-209.767691735434
30
-678.822509939086
0
POINT
5
B634
100
AcDbEntity
8
JOINTS
100
AcDbPoint
10
-604.835285121649
20
-308.178970521699
30
-678.822509939086
0
POINT
5
B635
100
AcDbEntity
8
JOINTS
100
AcDbPoint
10
-549.178946704977
20
-399.001860266355
30
-678.822509939086
0
POINT
5
B636
100
AcDbEntity
8
JOINTS
100
AcDbPoint
10
-480
20
-480
30
-678.822509939086
0
POINT
5
B637
100
AcDbEntity
8
JOINTS
100
AcDbPoint
10
-399.001860266355
20
-549.178946704977
30
-678.822509939086
0
POINT
5
B638
100
AcDbEntity
8
JOINTS
100
AcDbPoint
10
-308.178970521699
20
-604.835285121648
30
-678.822509939086
0
POINT
5
B639
100
AcDbEntity
8
JOINTS
100
AcDbPoint
10
-209.767691735434
20
-645.598571485399
30
-678.822509939086
0
POINT
5
B640
100
AcDbEntity
8
JOINTS
100
AcDbPoint
10
-106.191236199588
20
-670.465078400362
30
-678.822509939086
0
POINT
5
B641
100
AcDbEntity
8
JOINTS
100
AcDbPoint
10
-1.24693553818359E-13
20
-678.822509939086
30
-678.822509939086
0
ENDSEC
0
SECTION
2
OBJECTS
0
DICTIONARY
5
C
100
AcDbDictionary
3
ACAD_GROUP
350
D
3
ACAD_MLINESTYLE
350
E
0
DICTIONARY
5
D
102
{ACAD_REACTORS
330
C
102
}
100
AcDbDictionary
0
DICTIONARY
5
E
102
{ACAD_REACTORS
330
C
102
}
100
AcDbDictionary
3
STANDARD
350
1C
0
MLINESTYLE
5
1C
102
{ACAD_REACTORS
330
E
102
}
100
AcDbMlineStyle
2
STANDARD
70
0
3

62
0
51
90.0
52
90.0
71
2
49
0.5
62
256
6
BYLAYER
49
-0.5
62
256
6
BYLAYER
0
ENDSEC
0
EOF
